999
Created with Floor Plan Creator on Android
0
SECTION
2
HEADER
9
$ACADVER
1
AC1021
9
$HANDSEED
5
20000
9
$DWGCODEPAGE
3
ANSI_1250
9
$INSBASE
10
0
20
0
30
0
9
$EXTMIN
10
0
20
0
30
0
9
$EXTMAX
10
1312.79050601
20
869.9365
30
0
9
$LIMMIN
10
0
20
0
9
$LIMMAX
10
420
20
297
9
$ORTHOMODE
70
0
9
$LTSCALE
40
1
9
$TEXTSTYLE
7
STANDARD
9
$CLAYER
8
symbols
9
$DIMASZ
40
2.5
9
$DIMLFAC
40
1
9
$DIMSCALE
40
1
9
$DIMEXO
40
0.625
9
$DIMEXE
40
1.25
9
$DIMTXT
40
2.5
9
$DIMTSZ
40
0
9
$DIMAUNIT
70
0
9
$DIMADEC
70
0
9
$DIMLUNIT
70
2
9
$DIMSTYLE
2
STANDARD
9
$DIMGAP
40
1
9
$DIMTIH
70
0
9
$LUNITS
70
2
9
$LUPREC
70
4
9
$AUNITS
70
0
9
$AUPREC
70
2
9
$SPLINESEGS
70
8
9
$GRIDMODE
70
1
9
$SNAPSTYLE
70
0
9
$PINSBASE
10
0
20
0
30
0
9
$PLIMMIN
10
0
20
0
9
$PLIMMAX
10
210
20
297
9
$INSUNITS
70
5
9
$MEASUREMENT
70
0
9
$PSVPSCALE
40
1
0
ENDSEC
0
SECTION
2
CLASSES
0
ENDSEC
0
SECTION
2
TABLES
0
TABLE
2
VPORT
5
8
330
0
100
AcDbSymbolTable
70
1
0
VPORT
5
31
330
2
100
AcDbSymbolTableRecord
100
AcDbViewportTableRecord
2
*ACTIVE
70
0
10
0
20
0
11
1
21
1
12
160.46875
22
81.40625
13
0
23
0
14
10
24
10
15
10
25
10
16
0
26
0
36
1
17
0
27
0
37
0
40
190
41
1.95394736842
42
50
43
0
44
0
50
0
51
0
71
0
72
100
73
1
74
3
75
0
76
1
77
0
78
0
281
0
65
1
110
0
120
0
130
0
111
1
121
0
131
0
112
0
122
1
132
0
79
0
146
0
348
10020
60
7
61
5
292
1
282
1
141
0
142
0
63
250
421
3358443
0
ENDTAB
0
TABLE
2
LTYPE
5
5
330
0
100
AcDbSymbolTable
70
4
0
LTYPE
5
14
330
5
100
AcDbSymbolTableRecord
100
AcDbLinetypeTableRecord
2
ByBlock
70
0
3

72
65
73
0
40
0
0
LTYPE
5
15
330
5
100
AcDbSymbolTableRecord
100
AcDbLinetypeTableRecord
2
ByLayer
70
0
3

72
65
73
0
40
0
0
LTYPE
5
16
330
5
100
AcDbSymbolTableRecord
100
AcDbLinetypeTableRecord
2
Continuous
70
0
3
Solid line
72
65
73
0
40
0
0
LTYPE
5
32
330
5
100
AcDbSymbolTableRecord
100
AcDbLinetypeTableRecord
2
DOT
70
0
3
Dot . . . . . . . . . . . . . . . . . . . . . .
72
65
73
2
40
6.35
49
0
74
0
49
-6.35
74
0
0
LTYPE
5
33
330
5
100
AcDbSymbolTableRecord
100
AcDbLinetypeTableRecord
2
DOT2
70
0
3
Dot (.5x) .....................................
72
65
73
2
40
3.175
49
0
74
0
49
-3.175
74
0
0
LTYPE
5
34
330
5
100
AcDbSymbolTableRecord
100
AcDbLinetypeTableRecord
2
DOTX2
70
0
3
Dot (2x) .  .  .  .  .  .  .  .  .  .  .  .  .
72
65
73
2
40
12.7
49
0
74
0
49
-12.7
74
0
0
LTYPE
5
35
330
5
100
AcDbSymbolTableRecord
100
AcDbLinetypeTableRecord
2
DASHED
70
0
3
Dot . . . . . . . . . . . . . . . . . . . . . .
72
65
73
2
40
19.05
49
12.7
74
0
49
-6.35
74
0
0
LTYPE
5
36
330
5
100
AcDbSymbolTableRecord
100
AcDbLinetypeTableRecord
2
DASHED2
70
0
3
Dashed (.5x) _ _ _ _ _ _ _ _ _ _ _ _ _ _ _ _ _
72
65
73
2
40
9.525
49
6.35
74
0
49
-3.175
74
0
0
LTYPE
5
37
330
5
100
AcDbSymbolTableRecord
100
AcDbLinetypeTableRecord
2
DASHEDX2
70
0
3
Dashed (2x) ____  ____  ____  ____  ____  ___
72
65
73
2
40
38.1
49
25.4
74
0
49
-12.7
74
0
0
LTYPE
5
38
330
5
100
AcDbSymbolTableRecord
100
AcDbLinetypeTableRecord
2
DASHDOT
70
0
3
Dash dot __ . __ . __ . __ . __ . __ . __ . __
72
65
73
4
40
25.4
49
12.7
74
0
49
-6.35
74
0
49
0
74
0
49
-6.35
74
0
0
LTYPE
5
39
330
5
100
AcDbSymbolTableRecord
100
AcDbLinetypeTableRecord
2
DASHDOT2
70
0
3
Dash dot (.5x) _._._._._._._._._._._._._._._.
72
65
73
4
40
12.7
49
6.35
74
0
49
-3.175
74
0
49
0
74
0
49
-3.175
74
0
0
LTYPE
5
3A
330
5
100
AcDbSymbolTableRecord
100
AcDbLinetypeTableRecord
2
DASHDOTX2
70
0
3
Dash dot (2x) ____  .  ____  .  ____  .  ___
72
65
73
4
40
50.8
49
25.4
74
0
49
-12.7
74
0
49
0
74
0
49
-12.7
74
0
0
LTYPE
5
3B
330
5
100
AcDbSymbolTableRecord
100
AcDbLinetypeTableRecord
2
DIVIDE
70
0
3
Divide ____ . . ____ . . ____ . . ____ . . ____
72
65
73
6
40
31.75
49
12.7
74
0
49
-6.35
74
0
49
0
74
0
49
-6.35
74
0
49
0
74
0
49
-6.35
74
0
0
LTYPE
5
3C
330
5
100
AcDbSymbolTableRecord
100
AcDbLinetypeTableRecord
2
DIVIDE2
70
0
3
Divide (.5x) __..__..__..__..__..__..__..__.._
72
65
73
6
40
15.875
49
6.35
74
0
49
-3.175
74
0
49
0
74
0
49
-3.175
74
0
49
0
74
0
49
-3.175
74
0
0
LTYPE
5
3D
330
5
100
AcDbSymbolTableRecord
100
AcDbLinetypeTableRecord
2
DIVIDEX2
70
0
3
Divide (2x) ________  .  .  ________  .  .  _
72
65
73
6
40
63.5
49
25.4
74
0
49
-12.7
74
0
49
0
74
0
49
-12.7
74
0
49
0
74
0
49
-12.7
74
0
0
LTYPE
5
3E
330
5
100
AcDbSymbolTableRecord
100
AcDbLinetypeTableRecord
2
BORDER
70
0
3
Border __ __ . __ __ . __ __ . __ __ . __ __ .
72
65
73
6
40
44.45
49
12.7
74
0
49
-6.35
74
0
49
12.7
74
0
49
-6.35
74
0
49
0
74
0
49
-6.35
74
0
0
LTYPE
5
3F
330
5
100
AcDbSymbolTableRecord
100
AcDbLinetypeTableRecord
2
BORDER2
70
0
3
Border (.5x) __.__.__.__.__.__.__.__.__.__.__.
72
65
73
6
40
22.225
49
6.35
74
0
49
-3.175
74
0
49
6.35
74
0
49
-3.175
74
0
49
0
74
0
49
-3.175
74
0
0
LTYPE
5
40
330
5
100
AcDbSymbolTableRecord
100
AcDbLinetypeTableRecord
2
BORDERX2
70
0
3
Border (2x) ____  ____  .  ____  ____  .  ___
72
65
73
6
40
88.9
49
25.4
74
0
49
-12.7
74
0
49
25.4
74
0
49
-12.7
74
0
49
0
74
0
49
-12.7
74
0
0
LTYPE
5
41
330
5
100
AcDbSymbolTableRecord
100
AcDbLinetypeTableRecord
2
CENTER
70
0
3
Center ____ _ ____ _ ____ _ ____ _ ____ _ ____
72
65
73
4
40
50.8
49
31.75
74
0
49
-6.35
74
0
49
6.35
74
0
49
-6.35
74
0
0
LTYPE
5
42
330
5
100
AcDbSymbolTableRecord
100
AcDbLinetypeTableRecord
2
CENTER2
70
0
3
Center (.5x) ___ _ ___ _ ___ _ ___ _ ___ _ ___
72
65
73
4
40
28.575
49
19.05
74
0
49
-3.175
74
0
49
3.175
74
0
49
-3.175
74
0
0
LTYPE
5
43
330
5
100
AcDbSymbolTableRecord
100
AcDbLinetypeTableRecord
2
CENTERX2
70
0
3
Center (2x) ________  __  ________  __  _____
72
65
73
4
40
101.6
49
63.5
74
0
49
-12.7
74
0
49
12.7
74
0
49
-12.7
74
0
0
ENDTAB
0
TABLE
2
LAYER
5
2
330
0
100
AcDbSymbolTable
70
1
0
LAYER
5
10
330
2
100
AcDbSymbolTableRecord
100
AcDbLayerTableRecord
2
0
70
0
62
7
6
CONTINUOUS
370
0
390
F
0
LAYER
5
44
330
2
100
AcDbSymbolTableRecord
100
AcDbLayerTableRecord
2
walls
70
0
62
2
6
CONTINUOUS
370
0
390
F
0
LAYER
5
45
330
2
100
AcDbSymbolTableRecord
100
AcDbLayerTableRecord
2
text
70
0
62
7
6
CONTINUOUS
370
0
390
F
0
LAYER
5
46
330
2
100
AcDbSymbolTableRecord
100
AcDbLayerTableRecord
2
symbols
70
0
62
3
6
CONTINUOUS
370
0
390
F
0
LAYER
5
47
330
2
100
AcDbSymbolTableRecord
100
AcDbLayerTableRecord
2
dimensions
70
0
62
7
6
CONTINUOUS
370
0
390
F
0
ENDTAB
0
TABLE
2
STYLE
5
3
330
0
100
AcDbSymbolTable
70
3
0
STYLE
5
48
330
2
100
AcDbSymbolTableRecord
100
AcDbTextStyleTableRecord
2
standard
70
0
40
0
41
1
50
0
71
0
42
1
3
standard
4

0
ENDTAB
0
TABLE
2
VIEW
5
6
330
0
100
AcDbSymbolTable
70
0
0
ENDTAB
0
TABLE
2
UCS
5
7
330
0
100
AcDbSymbolTable
70
0
0
ENDTAB
0
TABLE
2
APPID
5
9
330
0
100
AcDbSymbolTable
70
1
0
APPID
5
12
330
9
100
AcDbSymbolTableRecord
100
AcDbRegAppTableRecord
2
ACAD
70
0
0
ENDTAB
0
TABLE
2
DIMSTYLE
5
A
330
0
100
AcDbSymbolTable
70
1
100
AcDbDimStyleTable
71
1
0
DIMSTYLE
105
49
330
A
100
AcDbSymbolTableRecord
100
AcDbDimStyleTableRecord
2
Standard
70
0
40
1
41
2.5
42
0.625
43
0.38
44
1.25
45
0
46
0
47
0
48
0
140
2.5
141
0.09
142
0
143
25.4
144
1
145
0
146
1
147
0.625
148
0
71
0
72
0
73
0
74
1
75
0
76
0
77
0
78
0
79
0
170
0
171
2
172
0
173
0
174
0
175
0
176
0
177
0
178
0
179
0
271
4
272
4
273
2
274
2
275
0
276
0
277
2
278
46
279
0
280
0
281
0
282
0
283
1
284
0
285
0
286
0
288
0
289
3
340
Standard
341

371
-2
372
-2
0
ENDTAB
0
TABLE
2
BLOCK_RECORD
5
1
330
0
100
AcDbSymbolTable
70
2
0
BLOCK_RECORD
5
1F
330
1
100
AcDbSymbolTableRecord
100
AcDbBlockTableRecord
2
*Model_Space
70
0
280
1
281
0
0
BLOCK_RECORD
5
1E
330
1
100
AcDbSymbolTableRecord
100
AcDbBlockTableRecord
2
*Paper_Space
70
0
280
1
281
0
0
BLOCK_RECORD
5
4A
330
1
100
AcDbSymbolTableRecord
100
AcDbBlockTableRecord
2
*D1
70
0
280
1
281
0
0
BLOCK_RECORD
5
4B
330
1
100
AcDbSymbolTableRecord
100
AcDbBlockTableRecord
2
*D2
70
0
280
1
281
0
0
BLOCK_RECORD
5
4C
330
1
100
AcDbSymbolTableRecord
100
AcDbBlockTableRecord
2
*D3
70
0
280
1
281
0
0
BLOCK_RECORD
5
4D
330
1
100
AcDbSymbolTableRecord
100
AcDbBlockTableRecord
2
*D4
70
0
280
1
281
0
0
BLOCK_RECORD
5
4E
330
1
100
AcDbSymbolTableRecord
100
AcDbBlockTableRecord
2
*D5
70
0
280
1
281
0
0
BLOCK_RECORD
5
4F
330
1
100
AcDbSymbolTableRecord
100
AcDbBlockTableRecord
2
*D6
70
0
280
1
281
0
0
BLOCK_RECORD
5
50
330
1
100
AcDbSymbolTableRecord
100
AcDbBlockTableRecord
2
*D7
70
0
280
1
281
0
0
BLOCK_RECORD
5
51
330
1
100
AcDbSymbolTableRecord
100
AcDbBlockTableRecord
2
*D8
70
0
280
1
281
0
0
BLOCK_RECORD
5
52
330
1
100
AcDbSymbolTableRecord
100
AcDbBlockTableRecord
2
*D9
70
0
280
1
281
0
0
BLOCK_RECORD
5
53
330
1
100
AcDbSymbolTableRecord
100
AcDbBlockTableRecord
2
*D10
70
0
280
1
281
0
0
BLOCK_RECORD
5
54
330
1
100
AcDbSymbolTableRecord
100
AcDbBlockTableRecord
2
*D11
70
0
280
1
281
0
0
BLOCK_RECORD
5
55
330
1
100
AcDbSymbolTableRecord
100
AcDbBlockTableRecord
2
*D12
70
0
280
1
281
0
0
BLOCK_RECORD
5
56
330
1
100
AcDbSymbolTableRecord
100
AcDbBlockTableRecord
2
*D13
70
0
280
1
281
0
0
BLOCK_RECORD
5
57
330
1
100
AcDbSymbolTableRecord
100
AcDbBlockTableRecord
2
*D14
70
0
280
1
281
0
0
BLOCK_RECORD
5
58
330
1
100
AcDbSymbolTableRecord
100
AcDbBlockTableRecord
2
*D15
70
0
280
1
281
0
0
BLOCK_RECORD
5
59
330
1
100
AcDbSymbolTableRecord
100
AcDbBlockTableRecord
2
*D16
70
0
280
1
281
0
0
BLOCK_RECORD
5
5A
330
1
100
AcDbSymbolTableRecord
100
AcDbBlockTableRecord
2
*D17
70
0
280
1
281
0
0
BLOCK_RECORD
5
5B
330
1
100
AcDbSymbolTableRecord
100
AcDbBlockTableRecord
2
*D18
70
0
280
1
281
0
0
BLOCK_RECORD
5
5C
330
1
100
AcDbSymbolTableRecord
100
AcDbBlockTableRecord
2
*D19
70
0
280
1
281
0
0
BLOCK_RECORD
5
5D
330
1
100
AcDbSymbolTableRecord
100
AcDbBlockTableRecord
2
*D20
70
0
280
1
281
0
0
BLOCK_RECORD
5
5E
330
1
100
AcDbSymbolTableRecord
100
AcDbBlockTableRecord
2
*D21
70
0
280
1
281
0
0
BLOCK_RECORD
5
5F
330
1
100
AcDbSymbolTableRecord
100
AcDbBlockTableRecord
2
*D22
70
0
280
1
281
0
0
BLOCK_RECORD
5
60
330
1
100
AcDbSymbolTableRecord
100
AcDbBlockTableRecord
2
*D23
70
0
280
1
281
0
0
BLOCK_RECORD
5
61
330
1
100
AcDbSymbolTableRecord
100
AcDbBlockTableRecord
2
*D24
70
0
280
1
281
0
0
BLOCK_RECORD
5
62
330
1
100
AcDbSymbolTableRecord
100
AcDbBlockTableRecord
2
*D25
70
0
280
1
281
0
0
BLOCK_RECORD
5
63
330
1
100
AcDbSymbolTableRecord
100
AcDbBlockTableRecord
2
*D26
70
0
280
1
281
0
0
BLOCK_RECORD
5
64
330
1
100
AcDbSymbolTableRecord
100
AcDbBlockTableRecord
2
*D27
70
0
280
1
281
0
0
BLOCK_RECORD
5
65
330
1
100
AcDbSymbolTableRecord
100
AcDbBlockTableRecord
2
*D28
70
0
280
1
281
0
0
BLOCK_RECORD
5
66
330
1
100
AcDbSymbolTableRecord
100
AcDbBlockTableRecord
2
*D29
70
0
280
1
281
0
0
BLOCK_RECORD
5
67
330
1
100
AcDbSymbolTableRecord
100
AcDbBlockTableRecord
2
*D30
70
0
280
1
281
0
0
BLOCK_RECORD
5
68
330
1
100
AcDbSymbolTableRecord
100
AcDbBlockTableRecord
2
*D31
70
0
280
1
281
0
0
BLOCK_RECORD
5
69
330
1
100
AcDbSymbolTableRecord
100
AcDbBlockTableRecord
2
*D32
70
0
280
1
281
0
0
BLOCK_RECORD
5
6A
330
1
100
AcDbSymbolTableRecord
100
AcDbBlockTableRecord
2
*D33
70
0
280
1
281
0
0
BLOCK_RECORD
5
6B
330
1
100
AcDbSymbolTableRecord
100
AcDbBlockTableRecord
2
*D34
70
0
280
1
281
0
0
BLOCK_RECORD
5
6C
330
1
100
AcDbSymbolTableRecord
100
AcDbBlockTableRecord
2
*D35
70
0
280
1
281
0
0
BLOCK_RECORD
5
6D
330
1
100
AcDbSymbolTableRecord
100
AcDbBlockTableRecord
2
*D36
70
0
280
1
281
0
0
ENDTAB
0
ENDSEC
0
SECTION
2
BLOCKS
0
BLOCK
5
20
330
1F
100
AcDbEntity
8
0
100
AcDbBlockBegin
2
*Model_Space
70
0
10
0
20
0
30
0
3
*Model_Space
1

0
ENDBLK
5
21
330
1F
100
AcDbEntity
8
0
100
AcDbBlockEnd
0
BLOCK
5
1C
330
0
100
AcDbEntity
8
0
100
AcDbBlockBegin
2
*Paper_Space
70
0
10
0
20
0
30
0
3
*Paper_Space
1

0
ENDBLK
5
1D
330
1F
100
AcDbEntity
8
0
100
AcDbBlockEnd
0
BLOCK
5
6E
330
4A
100
AcDbEntity
8
0
100
AcDbBlockBegin
2
*D1
70
1
10
0
20
0
3
*D1
1

0
LINE
5
6F
100
AcDbEntity
8
dimensions
6
ByLayer
62
256
370
-1
100
AcDbLine
10
691.3183
20
375.8361
11
857.4311
21
375.8361
0
LINE
5
70
100
AcDbEntity
8
dimensions
6
ByLayer
62
256
370
-1
100
AcDbLine
10
700.8183
20
352.1081
11
700.8183
21
385.3361
0
LINE
5
71
100
AcDbEntity
8
dimensions
6
ByLayer
62
256
370
-1
100
AcDbLine
10
696.0683
20
380.5861
11
705.5683
21
371.0861
0
LINE
5
72
100
AcDbEntity
8
dimensions
6
ByLayer
62
256
370
-1
100
AcDbLine
10
847.9311
20
352.1081
11
847.9311
21
385.3361
0
LINE
5
73
100
AcDbEntity
8
dimensions
6
ByLayer
62
256
370
-1
100
AcDbLine
10
843.1811
20
380.5861
11
852.6811
21
371.0861
0
TEXT
5
74
100
AcDbEntity
8
text
6
ByLayer
62
256
370
-1
100
AcDbText
10
748.7247
20
390.0861
30
0
40
19
1
147
50
0
41
0.9
7
standard
72
1
11
774.3747
21
390.0861
31
0
100
AcDbText
0
ENDBLK
5
75
330
46
100
AcDbEntity
8
0
100
AcDbBlockEnd
0
BLOCK
5
76
330
4B
100
AcDbEntity
8
0
100
AcDbBlockBegin
2
*D2
70
1
10
0
20
0
3
*D2
1

0
LINE
5
77
100
AcDbEntity
8
dimensions
6
ByLayer
62
256
370
-1
100
AcDbLine
10
838.4311
20
375.8361
11
1057.3118
21
375.8361
0
LINE
5
78
100
AcDbEntity
8
dimensions
6
ByLayer
62
256
370
-1
100
AcDbLine
10
847.9311
20
352.1081
11
847.9311
21
385.3361
0
LINE
5
79
100
AcDbEntity
8
dimensions
6
ByLayer
62
256
370
-1
100
AcDbLine
10
843.1811
20
380.5861
11
852.6811
21
371.0861
0
LINE
5
7A
100
AcDbEntity
8
dimensions
6
ByLayer
62
256
370
-1
100
AcDbLine
10
1047.8118
20
352.1081
11
1047.8118
21
385.3361
0
LINE
5
7B
100
AcDbEntity
8
dimensions
6
ByLayer
62
256
370
-1
100
AcDbLine
10
1043.0618
20
380.5861
11
1052.5618
21
371.0861
0
TEXT
5
7C
100
AcDbEntity
8
text
6
ByLayer
62
256
370
-1
100
AcDbText
10
922.22145
20
390.0861
30
0
40
19
1
200
50
0
41
0.9
7
standard
72
1
11
947.87145
21
390.0861
31
0
100
AcDbText
0
ENDBLK
5
7D
330
46
100
AcDbEntity
8
0
100
AcDbBlockEnd
0
BLOCK
5
7E
330
4C
100
AcDbEntity
8
0
100
AcDbBlockBegin
2
*D3
70
1
10
0
20
0
3
*D3
1

0
LINE
5
7F
100
AcDbEntity
8
dimensions
6
ByLayer
62
256
370
-1
100
AcDbLine
10
585.8223
20
623.6306
11
585.8223
21
306.5647
0
LINE
5
80
100
AcDbEntity
8
dimensions
6
ByLayer
62
256
370
-1
100
AcDbLine
10
596.8232
20
615.1306
11
577.3223
21
615.1306
0
LINE
5
81
100
AcDbEntity
8
dimensions
6
ByLayer
62
256
370
-1
100
AcDbLine
10
590.0723
20
619.3806
11
581.5723
21
610.8806
0
LINE
5
82
100
AcDbEntity
8
dimensions
6
ByLayer
62
256
370
-1
100
AcDbLine
10
596.8232
20
315.0647
11
577.3223
21
315.0647
0
LINE
5
83
100
AcDbEntity
8
dimensions
6
ByLayer
62
256
370
-1
100
AcDbLine
10
590.0723
20
319.3147
11
581.5723
21
310.8147
0
TEXT
5
84
100
AcDbEntity
8
text
6
ByLayer
62
256
370
-1
100
AcDbText
10
541.6223
20
456.59765
30
0
40
17
1
300
50
-270
41
0.9
7
standard
72
1
11
564.5723
21
456.59765
31
0
100
AcDbText
0
ENDBLK
5
85
330
46
100
AcDbEntity
8
0
100
AcDbBlockEnd
0
BLOCK
5
86
330
4D
100
AcDbEntity
8
0
100
AcDbBlockBegin
2
*D4
70
1
10
0
20
0
3
*D4
1

0
LINE
5
87
100
AcDbEntity
8
dimensions
6
ByLayer
62
256
370
-1
100
AcDbLine
10
585.8223
20
323.5647
11
585.8223
21
294.3747
0
LINE
5
88
100
AcDbEntity
8
dimensions
6
ByLayer
62
256
370
-1
100
AcDbLine
10
596.8232
20
315.0647
11
577.3223
21
315.0647
0
LINE
5
89
100
AcDbEntity
8
dimensions
6
ByLayer
62
256
370
-1
100
AcDbLine
10
590.0723
20
319.3147
11
581.5723
21
310.8147
0
LINE
5
8A
100
AcDbEntity
8
dimensions
6
ByLayer
62
256
370
-1
100
AcDbLine
10
596.8232
20
302.8747
11
577.3223
21
302.8747
0
LINE
5
8B
100
AcDbEntity
8
dimensions
6
ByLayer
62
256
370
-1
100
AcDbLine
10
590.0723
20
307.1247
11
581.5723
21
298.6247
0
TEXT
5
8C
100
AcDbEntity
8
text
6
ByLayer
62
256
370
-1
100
AcDbText
10
549.2723
20
300.4697
30
0
40
17
1
12
50
-270
41
0.9
7
standard
72
1
11
564.5723
21
300.4697
31
0
100
AcDbText
0
ENDBLK
5
8D
330
46
100
AcDbEntity
8
0
100
AcDbBlockEnd
0
BLOCK
5
8E
330
4E
100
AcDbEntity
8
0
100
AcDbBlockBegin
2
*D5
70
1
10
0
20
0
3
*D5
1

0
LINE
5
8F
100
AcDbEntity
8
dimensions
6
ByLayer
62
256
370
-1
100
AcDbLine
10
585.8223
20
311.3747
11
585.8223
21
257.309
0
LINE
5
90
100
AcDbEntity
8
dimensions
6
ByLayer
62
256
370
-1
100
AcDbLine
10
596.8232
20
302.8747
11
577.3223
21
302.8747
0
LINE
5
91
100
AcDbEntity
8
dimensions
6
ByLayer
62
256
370
-1
100
AcDbLine
10
590.0723
20
307.1247
11
581.5723
21
298.6247
0
LINE
5
92
100
AcDbEntity
8
dimensions
6
ByLayer
62
256
370
-1
100
AcDbLine
10
596.8232
20
265.809
11
577.3223
21
265.809
0
LINE
5
93
100
AcDbEntity
8
dimensions
6
ByLayer
62
256
370
-1
100
AcDbLine
10
590.0723
20
270.059
11
581.5723
21
261.559
0
TEXT
5
94
100
AcDbEntity
8
text
6
ByLayer
62
256
370
-1
100
AcDbText
10
549.2723
20
275.84185
30
0
40
17
1
37
50
-270
41
0.9
7
standard
72
1
11
564.5723
21
275.84185
31
0
100
AcDbText
0
ENDBLK
5
95
330
46
100
AcDbEntity
8
0
100
AcDbBlockEnd
0
BLOCK
5
96
330
4F
100
AcDbEntity
8
0
100
AcDbBlockBegin
2
*D6
70
1
10
0
20
0
3
*D6
1

0
LINE
5
97
100
AcDbEntity
8
dimensions
6
ByLayer
62
256
370
-1
100
AcDbLine
10
585.8223
20
274.309
11
585.8223
21
95.1001
0
LINE
5
98
100
AcDbEntity
8
dimensions
6
ByLayer
62
256
370
-1
100
AcDbLine
10
596.8232
20
265.809
11
577.3223
21
265.809
0
LINE
5
99
100
AcDbEntity
8
dimensions
6
ByLayer
62
256
370
-1
100
AcDbLine
10
590.0723
20
270.059
11
581.5723
21
261.559
0
LINE
5
9A
100
AcDbEntity
8
dimensions
6
ByLayer
62
256
370
-1
100
AcDbLine
10
596.8232
20
103.6001
11
577.3223
21
103.6001
0
LINE
5
9B
100
AcDbEntity
8
dimensions
6
ByLayer
62
256
370
-1
100
AcDbLine
10
590.0723
20
107.8501
11
581.5723
21
99.3501
0
TEXT
5
9C
100
AcDbEntity
8
text
6
ByLayer
62
256
370
-1
100
AcDbText
10
541.6223
20
176.20455
30
0
40
17
1
162
50
-270
41
0.9
7
standard
72
1
11
564.5723
21
176.20455
31
0
100
AcDbText
0
ENDBLK
5
9D
330
46
100
AcDbEntity
8
0
100
AcDbBlockEnd
0
BLOCK
5
9E
330
50
100
AcDbEntity
8
0
100
AcDbBlockBegin
2
*D7
70
1
10
0
20
0
3
*D7
1

0
LINE
5
9F
100
AcDbEntity
8
dimensions
6
ByLayer
62
256
370
-1
100
AcDbLine
10
54.6
20
848.9365
11
110.6
21
848.9365
0
LINE
5
A0
100
AcDbEntity
8
dimensions
6
ByLayer
62
256
370
-1
100
AcDbLine
10
61.6
20
820.9365
11
61.6
21
855.9365
0
LINE
5
A1
100
AcDbEntity
8
dimensions
6
ByLayer
62
256
370
-1
100
AcDbLine
10
58.1
20
852.4365
11
65.1
21
845.4365
0
LINE
5
A2
100
AcDbEntity
8
dimensions
6
ByLayer
62
256
370
-1
100
AcDbLine
10
103.6
20
820.9365
11
103.6
21
855.9365
0
LINE
5
A3
100
AcDbEntity
8
dimensions
6
ByLayer
62
256
370
-1
100
AcDbLine
10
100.1
20
852.4365
11
107.1
21
845.4365
0
TEXT
5
A4
100
AcDbEntity
8
text
6
ByLayer
62
256
370
-1
100
AcDbText
10
70
20
859.4365
30
0
40
14
1
42
50
0
41
0.9
7
standard
72
1
11
82.6
21
859.4365
31
0
100
AcDbText
0
ENDBLK
5
A5
330
46
100
AcDbEntity
8
0
100
AcDbBlockEnd
0
BLOCK
5
A6
330
51
100
AcDbEntity
8
0
100
AcDbBlockBegin
2
*D8
70
1
10
0
20
0
3
*D8
1

0
LINE
5
A7
100
AcDbEntity
8
dimensions
6
ByLayer
62
256
370
-1
100
AcDbLine
10
96.6
20
848.9365
11
454.8072
21
848.9365
0
LINE
5
A8
100
AcDbEntity
8
dimensions
6
ByLayer
62
256
370
-1
100
AcDbLine
10
103.6
20
820.9365
11
103.6
21
855.9365
0
LINE
5
A9
100
AcDbEntity
8
dimensions
6
ByLayer
62
256
370
-1
100
AcDbLine
10
100.1
20
852.4365
11
107.1
21
845.4365
0
LINE
5
AA
100
AcDbEntity
8
dimensions
6
ByLayer
62
256
370
-1
100
AcDbLine
10
447.8072
20
820.9365
11
447.8072
21
855.9365
0
LINE
5
AB
100
AcDbEntity
8
dimensions
6
ByLayer
62
256
370
-1
100
AcDbLine
10
444.3072
20
852.4365
11
451.3072
21
845.4365
0
TEXT
5
AC
100
AcDbEntity
8
text
6
ByLayer
62
256
370
-1
100
AcDbText
10
256.8036
20
859.4365
30
0
40
14
1
344
50
0
41
0.9
7
standard
72
1
11
275.7036
21
859.4365
31
0
100
AcDbText
0
ENDBLK
5
AD
330
46
100
AcDbEntity
8
0
100
AcDbBlockEnd
0
BLOCK
5
AE
330
52
100
AcDbEntity
8
0
100
AcDbBlockBegin
2
*D9
70
1
10
0
20
0
3
*D9
1

0
LINE
5
AF
100
AcDbEntity
8
dimensions
6
ByLayer
62
256
370
-1
100
AcDbLine
10
440.8072
20
848.9365
11
473.1647
21
848.9365
0
LINE
5
B0
100
AcDbEntity
8
dimensions
6
ByLayer
62
256
370
-1
100
AcDbLine
10
447.8072
20
820.9365
11
447.8072
21
855.9365
0
LINE
5
B1
100
AcDbEntity
8
dimensions
6
ByLayer
62
256
370
-1
100
AcDbLine
10
444.3072
20
852.4365
11
451.3072
21
845.4365
0
LINE
5
B2
100
AcDbEntity
8
dimensions
6
ByLayer
62
256
370
-1
100
AcDbLine
10
466.1647
20
820.9365
11
466.1647
21
855.9365
0
LINE
5
B3
100
AcDbEntity
8
dimensions
6
ByLayer
62
256
370
-1
100
AcDbLine
10
462.6647
20
852.4365
11
469.6647
21
845.4365
0
TEXT
5
B4
100
AcDbEntity
8
text
6
ByLayer
62
256
370
-1
100
AcDbText
10
444.38595
20
859.4365
30
0
40
14
1
18
50
0
41
0.9
7
standard
72
1
11
456.98595
21
859.4365
31
0
100
AcDbText
0
ENDBLK
5
B5
330
46
100
AcDbEntity
8
0
100
AcDbBlockEnd
0
BLOCK
5
B6
330
53
100
AcDbEntity
8
0
100
AcDbBlockBegin
2
*D10
70
1
10
0
20
0
3
*D10
1

0
LINE
5
B7
100
AcDbEntity
8
dimensions
6
ByLayer
62
256
370
-1
100
AcDbLine
10
459.1647
20
848.9365
11
695.8598
21
848.9365
0
LINE
5
B8
100
AcDbEntity
8
dimensions
6
ByLayer
62
256
370
-1
100
AcDbLine
10
466.1647
20
820.9365
11
466.1647
21
855.9365
0
LINE
5
B9
100
AcDbEntity
8
dimensions
6
ByLayer
62
256
370
-1
100
AcDbLine
10
462.6647
20
852.4365
11
469.6647
21
845.4365
0
LINE
5
BA
100
AcDbEntity
8
dimensions
6
ByLayer
62
256
370
-1
100
AcDbLine
10
688.8598
20
820.9365
11
688.8598
21
855.9365
0
LINE
5
BB
100
AcDbEntity
8
dimensions
6
ByLayer
62
256
370
-1
100
AcDbLine
10
685.3598
20
852.4365
11
692.3598
21
845.4365
0
TEXT
5
BC
100
AcDbEntity
8
text
6
ByLayer
62
256
370
-1
100
AcDbText
10
558.61225
20
859.4365
30
0
40
14
1
223
50
0
41
0.9
7
standard
72
1
11
577.51225
21
859.4365
31
0
100
AcDbText
0
ENDBLK
5
BD
330
46
100
AcDbEntity
8
0
100
AcDbBlockEnd
0
BLOCK
5
BE
330
54
100
AcDbEntity
8
0
100
AcDbBlockBegin
2
*D11
70
1
10
0
20
0
3
*D11
1

0
LINE
5
BF
100
AcDbEntity
8
dimensions
6
ByLayer
62
256
370
-1
100
AcDbLine
10
681.8598
20
848.9365
11
707.8183
21
848.9365
0
LINE
5
C0
100
AcDbEntity
8
dimensions
6
ByLayer
62
256
370
-1
100
AcDbLine
10
688.8598
20
820.9365
11
688.8598
21
855.9365
0
LINE
5
C1
100
AcDbEntity
8
dimensions
6
ByLayer
62
256
370
-1
100
AcDbLine
10
685.3598
20
852.4365
11
692.3598
21
845.4365
0
LINE
5
C2
100
AcDbEntity
8
dimensions
6
ByLayer
62
256
370
-1
100
AcDbLine
10
700.8183
20
820.9365
11
700.8183
21
855.9365
0
LINE
5
C3
100
AcDbEntity
8
dimensions
6
ByLayer
62
256
370
-1
100
AcDbLine
10
697.3183
20
852.4365
11
704.3183
21
845.4365
0
TEXT
5
C4
100
AcDbEntity
8
text
6
ByLayer
62
256
370
-1
100
AcDbText
10
682.23905
20
859.4365
30
0
40
14
1
12
50
0
41
0.9
7
standard
72
1
11
694.83905
21
859.4365
31
0
100
AcDbText
0
ENDBLK
5
C5
330
46
100
AcDbEntity
8
0
100
AcDbBlockEnd
0
BLOCK
5
C6
330
55
100
AcDbEntity
8
0
100
AcDbBlockBegin
2
*D12
70
1
10
0
20
0
3
*D12
1

0
LINE
5
C7
100
AcDbEntity
8
dimensions
6
ByLayer
62
256
370
-1
100
AcDbLine
10
693.8183
20
848.9365
11
1054.8118
21
848.9365
0
LINE
5
C8
100
AcDbEntity
8
dimensions
6
ByLayer
62
256
370
-1
100
AcDbLine
10
700.8183
20
820.9365
11
700.8183
21
855.9365
0
LINE
5
C9
100
AcDbEntity
8
dimensions
6
ByLayer
62
256
370
-1
100
AcDbLine
10
697.3183
20
852.4365
11
704.3183
21
845.4365
0
LINE
5
CA
100
AcDbEntity
8
dimensions
6
ByLayer
62
256
370
-1
100
AcDbLine
10
1047.8118
20
820.9365
11
1047.8118
21
855.9365
0
LINE
5
CB
100
AcDbEntity
8
dimensions
6
ByLayer
62
256
370
-1
100
AcDbLine
10
1044.3118
20
852.4365
11
1051.3118
21
845.4365
0
TEXT
5
CC
100
AcDbEntity
8
text
6
ByLayer
62
256
370
-1
100
AcDbText
10
855.41505
20
859.4365
30
0
40
14
1
347
50
0
41
0.9
7
standard
72
1
11
874.31505
21
859.4365
31
0
100
AcDbText
0
ENDBLK
5
CD
330
46
100
AcDbEntity
8
0
100
AcDbBlockEnd
0
BLOCK
5
CE
330
56
100
AcDbEntity
8
0
100
AcDbBlockBegin
2
*D13
70
1
10
0
20
0
3
*D13
1

0
LINE
5
CF
100
AcDbEntity
8
dimensions
6
ByLayer
62
256
370
-1
100
AcDbLine
10
1040.8118
20
848.9365
11
1096.8118
21
848.9365
0
LINE
5
D0
100
AcDbEntity
8
dimensions
6
ByLayer
62
256
370
-1
100
AcDbLine
10
1047.8118
20
820.9365
11
1047.8118
21
855.9365
0
LINE
5
D1
100
AcDbEntity
8
dimensions
6
ByLayer
62
256
370
-1
100
AcDbLine
10
1044.3118
20
852.4365
11
1051.3118
21
845.4365
0
LINE
5
D2
100
AcDbEntity
8
dimensions
6
ByLayer
62
256
370
-1
100
AcDbLine
10
1089.8118
20
820.9365
11
1089.8118
21
855.9365
0
LINE
5
D3
100
AcDbEntity
8
dimensions
6
ByLayer
62
256
370
-1
100
AcDbLine
10
1086.3118
20
852.4365
11
1093.3118
21
845.4365
0
TEXT
5
D4
100
AcDbEntity
8
text
6
ByLayer
62
256
370
-1
100
AcDbText
10
1056.2118
20
859.4365
30
0
40
14
1
42
50
0
41
0.9
7
standard
72
1
11
1068.8118
21
859.4365
31
0
100
AcDbText
0
ENDBLK
5
D5
330
46
100
AcDbEntity
8
0
100
AcDbBlockEnd
0
BLOCK
5
D6
330
57
100
AcDbEntity
8
0
100
AcDbBlockBegin
2
*D14
70
1
10
0
20
0
3
*D14
1

0
LINE
5
D7
100
AcDbEntity
8
dimensions
6
ByLayer
62
256
370
-1
100
AcDbLine
10
54.6
20
21
11
110.6
21
21
0
LINE
5
D8
100
AcDbEntity
8
dimensions
6
ByLayer
62
256
370
-1
100
AcDbLine
10
61.6
20
49
11
61.6
21
14
0
LINE
5
D9
100
AcDbEntity
8
dimensions
6
ByLayer
62
256
370
-1
100
AcDbLine
10
58.1
20
24.5
11
65.1
21
17.5
0
LINE
5
DA
100
AcDbEntity
8
dimensions
6
ByLayer
62
256
370
-1
100
AcDbLine
10
103.6
20
49
11
103.6
21
14
0
LINE
5
DB
100
AcDbEntity
8
dimensions
6
ByLayer
62
256
370
-1
100
AcDbLine
10
100.1
20
24.5
11
107.1
21
17.5
0
TEXT
5
DC
100
AcDbEntity
8
text
6
ByLayer
62
256
370
-1
100
AcDbText
10
70
20
31.5
30
0
40
14
1
42
50
0
41
0.9
7
standard
72
1
11
82.6
21
31.5
31
0
100
AcDbText
0
ENDBLK
5
DD
330
46
100
AcDbEntity
8
0
100
AcDbBlockEnd
0
BLOCK
5
DE
330
58
100
AcDbEntity
8
0
100
AcDbBlockBegin
2
*D15
70
1
10
0
20
0
3
*D15
1

0
LINE
5
DF
100
AcDbEntity
8
dimensions
6
ByLayer
62
256
370
-1
100
AcDbLine
10
96.6
20
21
11
454.8072
21
21
0
LINE
5
E0
100
AcDbEntity
8
dimensions
6
ByLayer
62
256
370
-1
100
AcDbLine
10
103.6
20
49
11
103.6
21
14
0
LINE
5
E1
100
AcDbEntity
8
dimensions
6
ByLayer
62
256
370
-1
100
AcDbLine
10
100.1
20
24.5
11
107.1
21
17.5
0
LINE
5
E2
100
AcDbEntity
8
dimensions
6
ByLayer
62
256
370
-1
100
AcDbLine
10
447.8072
20
49
11
447.8072
21
14
0
LINE
5
E3
100
AcDbEntity
8
dimensions
6
ByLayer
62
256
370
-1
100
AcDbLine
10
444.3072
20
24.5
11
451.3072
21
17.5
0
TEXT
5
E4
100
AcDbEntity
8
text
6
ByLayer
62
256
370
-1
100
AcDbText
10
256.8036
20
31.5
30
0
40
14
1
344
50
0
41
0.9
7
standard
72
1
11
275.7036
21
31.5
31
0
100
AcDbText
0
ENDBLK
5
E5
330
46
100
AcDbEntity
8
0
100
AcDbBlockEnd
0
BLOCK
5
E6
330
59
100
AcDbEntity
8
0
100
AcDbBlockBegin
2
*D16
70
1
10
0
20
0
3
*D16
1

0
LINE
5
E7
100
AcDbEntity
8
dimensions
6
ByLayer
62
256
370
-1
100
AcDbLine
10
440.8072
20
21
11
473.1647
21
21
0
LINE
5
E8
100
AcDbEntity
8
dimensions
6
ByLayer
62
256
370
-1
100
AcDbLine
10
447.8072
20
49
11
447.8072
21
14
0
LINE
5
E9
100
AcDbEntity
8
dimensions
6
ByLayer
62
256
370
-1
100
AcDbLine
10
444.3072
20
24.5
11
451.3072
21
17.5
0
LINE
5
EA
100
AcDbEntity
8
dimensions
6
ByLayer
62
256
370
-1
100
AcDbLine
10
466.1647
20
49
11
466.1647
21
14
0
LINE
5
EB
100
AcDbEntity
8
dimensions
6
ByLayer
62
256
370
-1
100
AcDbLine
10
462.6647
20
24.5
11
469.6647
21
17.5
0
TEXT
5
EC
100
AcDbEntity
8
text
6
ByLayer
62
256
370
-1
100
AcDbText
10
444.38595
20
31.5
30
0
40
14
1
18
50
0
41
0.9
7
standard
72
1
11
456.98595
21
31.5
31
0
100
AcDbText
0
ENDBLK
5
ED
330
46
100
AcDbEntity
8
0
100
AcDbBlockEnd
0
BLOCK
5
EE
330
5A
100
AcDbEntity
8
0
100
AcDbBlockBegin
2
*D17
70
1
10
0
20
0
3
*D17
1

0
LINE
5
EF
100
AcDbEntity
8
dimensions
6
ByLayer
62
256
370
-1
100
AcDbLine
10
459.1647
20
21
11
695.86
21
21
0
LINE
5
F0
100
AcDbEntity
8
dimensions
6
ByLayer
62
256
370
-1
100
AcDbLine
10
466.1647
20
49
11
466.1647
21
14
0
LINE
5
F1
100
AcDbEntity
8
dimensions
6
ByLayer
62
256
370
-1
100
AcDbLine
10
462.6647
20
24.5
11
469.6647
21
17.5
0
LINE
5
F2
100
AcDbEntity
8
dimensions
6
ByLayer
62
256
370
-1
100
AcDbLine
10
688.86
20
49
11
688.86
21
14
0
LINE
5
F3
100
AcDbEntity
8
dimensions
6
ByLayer
62
256
370
-1
100
AcDbLine
10
685.36
20
24.5
11
692.36
21
17.5
0
TEXT
5
F4
100
AcDbEntity
8
text
6
ByLayer
62
256
370
-1
100
AcDbText
10
558.61235
20
31.5
30
0
40
14
1
223
50
0
41
0.9
7
standard
72
1
11
577.51235
21
31.5
31
0
100
AcDbText
0
ENDBLK
5
F5
330
46
100
AcDbEntity
8
0
100
AcDbBlockEnd
0
BLOCK
5
F6
330
5B
100
AcDbEntity
8
0
100
AcDbBlockBegin
2
*D18
70
1
10
0
20
0
3
*D18
1

0
LINE
5
F7
100
AcDbEntity
8
dimensions
6
ByLayer
62
256
370
-1
100
AcDbLine
10
681.86
20
21
11
707.8183
21
21
0
LINE
5
F8
100
AcDbEntity
8
dimensions
6
ByLayer
62
256
370
-1
100
AcDbLine
10
688.86
20
49
11
688.86
21
14
0
LINE
5
F9
100
AcDbEntity
8
dimensions
6
ByLayer
62
256
370
-1
100
AcDbLine
10
685.36
20
24.5
11
692.36
21
17.5
0
LINE
5
FA
100
AcDbEntity
8
dimensions
6
ByLayer
62
256
370
-1
100
AcDbLine
10
700.8183
20
49
11
700.8183
21
14
0
LINE
5
FB
100
AcDbEntity
8
dimensions
6
ByLayer
62
256
370
-1
100
AcDbLine
10
697.3183
20
24.5
11
704.3183
21
17.5
0
TEXT
5
FC
100
AcDbEntity
8
text
6
ByLayer
62
256
370
-1
100
AcDbText
10
682.23915
20
31.5
30
0
40
14
1
12
50
0
41
0.9
7
standard
72
1
11
694.83915
21
31.5
31
0
100
AcDbText
0
ENDBLK
5
FD
330
46
100
AcDbEntity
8
0
100
AcDbBlockEnd
0
BLOCK
5
FE
330
5C
100
AcDbEntity
8
0
100
AcDbBlockBegin
2
*D19
70
1
10
0
20
0
3
*D19
1

0
LINE
5
FF
100
AcDbEntity
8
dimensions
6
ByLayer
62
256
370
-1
100
AcDbLine
10
693.8183
20
21
11
854.9313
21
21
0
LINE
5
100
100
AcDbEntity
8
dimensions
6
ByLayer
62
256
370
-1
100
AcDbLine
10
700.8183
20
49
11
700.8183
21
14
0
LINE
5
101
100
AcDbEntity
8
dimensions
6
ByLayer
62
256
370
-1
100
AcDbLine
10
697.3183
20
24.5
11
704.3183
21
17.5
0
LINE
5
102
100
AcDbEntity
8
dimensions
6
ByLayer
62
256
370
-1
100
AcDbLine
10
847.9313
20
49
11
847.9313
21
14
0
LINE
5
103
100
AcDbEntity
8
dimensions
6
ByLayer
62
256
370
-1
100
AcDbLine
10
844.4313
20
24.5
11
851.4313
21
17.5
0
TEXT
5
104
100
AcDbEntity
8
text
6
ByLayer
62
256
370
-1
100
AcDbText
10
755.4748
20
31.5
30
0
40
14
1
147
50
0
41
0.9
7
standard
72
1
11
774.3748
21
31.5
31
0
100
AcDbText
0
ENDBLK
5
105
330
46
100
AcDbEntity
8
0
100
AcDbBlockEnd
0
BLOCK
5
106
330
5D
100
AcDbEntity
8
0
100
AcDbBlockBegin
2
*D20
70
1
10
0
20
0
3
*D20
1

0
LINE
5
107
100
AcDbEntity
8
dimensions
6
ByLayer
62
256
370
-1
100
AcDbLine
10
840.9313
20
21
11
866.9622
21
21
0
LINE
5
108
100
AcDbEntity
8
dimensions
6
ByLayer
62
256
370
-1
100
AcDbLine
10
847.9313
20
49
11
847.9313
21
14
0
LINE
5
109
100
AcDbEntity
8
dimensions
6
ByLayer
62
256
370
-1
100
AcDbLine
10
844.4313
20
24.5
11
851.4313
21
17.5
0
LINE
5
10A
100
AcDbEntity
8
dimensions
6
ByLayer
62
256
370
-1
100
AcDbLine
10
859.9622
20
49
11
859.9622
21
14
0
LINE
5
10B
100
AcDbEntity
8
dimensions
6
ByLayer
62
256
370
-1
100
AcDbLine
10
856.4622
20
24.5
11
863.4622
21
17.5
0
TEXT
5
10C
100
AcDbEntity
8
text
6
ByLayer
62
256
370
-1
100
AcDbText
10
841.34675
20
31.5
30
0
40
14
1
12
50
0
41
0.9
7
standard
72
1
11
853.94675
21
31.5
31
0
100
AcDbText
0
ENDBLK
5
10D
330
46
100
AcDbEntity
8
0
100
AcDbBlockEnd
0
BLOCK
5
10E
330
5E
100
AcDbEntity
8
0
100
AcDbBlockBegin
2
*D21
70
1
10
0
20
0
3
*D21
1

0
LINE
5
10F
100
AcDbEntity
8
dimensions
6
ByLayer
62
256
370
-1
100
AcDbLine
10
852.9622
20
21
11
917.0217
21
21
0
LINE
5
110
100
AcDbEntity
8
dimensions
6
ByLayer
62
256
370
-1
100
AcDbLine
10
859.9622
20
49
11
859.9622
21
14
0
LINE
5
111
100
AcDbEntity
8
dimensions
6
ByLayer
62
256
370
-1
100
AcDbLine
10
856.4622
20
24.5
11
863.4622
21
17.5
0
LINE
5
112
100
AcDbEntity
8
dimensions
6
ByLayer
62
256
370
-1
100
AcDbLine
10
910.0217
20
49
11
910.0217
21
14
0
LINE
5
113
100
AcDbEntity
8
dimensions
6
ByLayer
62
256
370
-1
100
AcDbLine
10
906.5217
20
24.5
11
913.5217
21
17.5
0
TEXT
5
114
100
AcDbEntity
8
text
6
ByLayer
62
256
370
-1
100
AcDbText
10
872.39195
20
31.5
30
0
40
14
1
50
50
0
41
0.9
7
standard
72
1
11
884.99195
21
31.5
31
0
100
AcDbText
0
ENDBLK
5
115
330
46
100
AcDbEntity
8
0
100
AcDbBlockEnd
0
BLOCK
5
116
330
5F
100
AcDbEntity
8
0
100
AcDbBlockBegin
2
*D22
70
1
10
0
20
0
3
*D22
1

0
LINE
5
117
100
AcDbEntity
8
dimensions
6
ByLayer
62
256
370
-1
100
AcDbLine
10
903.0217
20
21
11
1054.8118
21
21
0
LINE
5
118
100
AcDbEntity
8
dimensions
6
ByLayer
62
256
370
-1
100
AcDbLine
10
910.0217
20
49
11
910.0217
21
14
0
LINE
5
119
100
AcDbEntity
8
dimensions
6
ByLayer
62
256
370
-1
100
AcDbLine
10
906.5217
20
24.5
11
913.5217
21
17.5
0
LINE
5
11A
100
AcDbEntity
8
dimensions
6
ByLayer
62
256
370
-1
100
AcDbLine
10
1047.8118
20
49
11
1047.8118
21
14
0
LINE
5
11B
100
AcDbEntity
8
dimensions
6
ByLayer
62
256
370
-1
100
AcDbLine
10
1044.3118
20
24.5
11
1051.3118
21
17.5
0
TEXT
5
11C
100
AcDbEntity
8
text
6
ByLayer
62
256
370
-1
100
AcDbText
10
960.01675
20
31.5
30
0
40
14
1
138
50
0
41
0.9
7
standard
72
1
11
978.91675
21
31.5
31
0
100
AcDbText
0
ENDBLK
5
11D
330
46
100
AcDbEntity
8
0
100
AcDbBlockEnd
0
BLOCK
5
11E
330
60
100
AcDbEntity
8
0
100
AcDbBlockBegin
2
*D23
70
1
10
0
20
0
3
*D23
1

0
LINE
5
11F
100
AcDbEntity
8
dimensions
6
ByLayer
62
256
370
-1
100
AcDbLine
10
1040.8118
20
21
11
1096.8118
21
21
0
LINE
5
120
100
AcDbEntity
8
dimensions
6
ByLayer
62
256
370
-1
100
AcDbLine
10
1047.8118
20
49
11
1047.8118
21
14
0
LINE
5
121
100
AcDbEntity
8
dimensions
6
ByLayer
62
256
370
-1
100
AcDbLine
10
1044.3118
20
24.5
11
1051.3118
21
17.5
0
LINE
5
122
100
AcDbEntity
8
dimensions
6
ByLayer
62
256
370
-1
100
AcDbLine
10
1089.8118
20
49
11
1089.8118
21
14
0
LINE
5
123
100
AcDbEntity
8
dimensions
6
ByLayer
62
256
370
-1
100
AcDbLine
10
1086.3118
20
24.5
11
1093.3118
21
17.5
0
TEXT
5
124
100
AcDbEntity
8
text
6
ByLayer
62
256
370
-1
100
AcDbText
10
1056.2118
20
31.5
30
0
40
14
1
42
50
0
41
0.9
7
standard
72
1
11
1068.8118
21
31.5
31
0
100
AcDbText
0
ENDBLK
5
125
330
46
100
AcDbEntity
8
0
100
AcDbBlockEnd
0
BLOCK
5
126
330
61
100
AcDbEntity
8
0
100
AcDbBlockBegin
2
*D24
70
1
10
0
20
0
3
*D24
1

0
LINE
5
127
100
AcDbEntity
8
dimensions
6
ByLayer
62
256
370
-1
100
AcDbLine
10
21
20
815.3365
11
21
21
766.9057
0
LINE
5
128
100
AcDbEntity
8
dimensions
6
ByLayer
62
256
370
-1
100
AcDbLine
10
49
20
808.3365
11
14
21
808.3365
0
LINE
5
129
100
AcDbEntity
8
dimensions
6
ByLayer
62
256
370
-1
100
AcDbLine
10
24.5
20
811.8365
11
17.5
21
804.8365
0
LINE
5
12A
100
AcDbEntity
8
dimensions
6
ByLayer
62
256
370
-1
100
AcDbLine
10
49
20
773.9057
11
14
21
773.9057
0
LINE
5
12B
100
AcDbEntity
8
dimensions
6
ByLayer
62
256
370
-1
100
AcDbLine
10
24.5
20
777.4057
11
17.5
21
770.4057
0
TEXT
5
12C
100
AcDbEntity
8
text
6
ByLayer
62
256
370
-1
100
AcDbText
10
-9.1
20
784.1211
30
0
40
14
1
34
50
-270
41
0.9
7
standard
72
1
11
3.5
21
784.1211
31
0
100
AcDbText
0
ENDBLK
5
12D
330
46
100
AcDbEntity
8
0
100
AcDbBlockEnd
0
BLOCK
5
12E
330
62
100
AcDbEntity
8
0
100
AcDbBlockBegin
2
*D25
70
1
10
0
20
0
3
*D25
1

0
LINE
5
12F
100
AcDbEntity
8
dimensions
6
ByLayer
62
256
370
-1
100
AcDbLine
10
21
20
780.9057
11
21
21
667.3148
0
LINE
5
130
100
AcDbEntity
8
dimensions
6
ByLayer
62
256
370
-1
100
AcDbLine
10
49
20
773.9057
11
14
21
773.9057
0
LINE
5
131
100
AcDbEntity
8
dimensions
6
ByLayer
62
256
370
-1
100
AcDbLine
10
24.5
20
777.4057
11
17.5
21
770.4057
0
LINE
5
132
100
AcDbEntity
8
dimensions
6
ByLayer
62
256
370
-1
100
AcDbLine
10
49
20
674.3148
11
14
21
674.3148
0
LINE
5
133
100
AcDbEntity
8
dimensions
6
ByLayer
62
256
370
-1
100
AcDbLine
10
24.5
20
677.8148
11
17.5
21
670.8148
0
TEXT
5
134
100
AcDbEntity
8
text
6
ByLayer
62
256
370
-1
100
AcDbText
10
-15.4
20
717.11025
30
0
40
14
1
100
50
-270
41
0.9
7
standard
72
1
11
3.5
21
717.11025
31
0
100
AcDbText
0
ENDBLK
5
135
330
46
100
AcDbEntity
8
0
100
AcDbBlockEnd
0
BLOCK
5
136
330
63
100
AcDbEntity
8
0
100
AcDbBlockBegin
2
*D26
70
1
10
0
20
0
3
*D26
1

0
LINE
5
137
100
AcDbEntity
8
dimensions
6
ByLayer
62
256
370
-1
100
AcDbLine
10
21
20
681.3148
11
21
21
647.2603
0
LINE
5
138
100
AcDbEntity
8
dimensions
6
ByLayer
62
256
370
-1
100
AcDbLine
10
49
20
674.3148
11
14
21
674.3148
0
LINE
5
139
100
AcDbEntity
8
dimensions
6
ByLayer
62
256
370
-1
100
AcDbLine
10
24.5
20
677.8148
11
17.5
21
670.8148
0
LINE
5
13A
100
AcDbEntity
8
dimensions
6
ByLayer
62
256
370
-1
100
AcDbLine
10
49
20
654.2603
11
14
21
654.2603
0
LINE
5
13B
100
AcDbEntity
8
dimensions
6
ByLayer
62
256
370
-1
100
AcDbLine
10
24.5
20
657.7603
11
17.5
21
650.7603
0
TEXT
5
13C
100
AcDbEntity
8
text
6
ByLayer
62
256
370
-1
100
AcDbText
10
-9.1
20
657.28755
30
0
40
14
1
20
50
-270
41
0.9
7
standard
72
1
11
3.5
21
657.28755
31
0
100
AcDbText
0
ENDBLK
5
13D
330
46
100
AcDbEntity
8
0
100
AcDbBlockEnd
0
BLOCK
5
13E
330
64
100
AcDbEntity
8
0
100
AcDbBlockBegin
2
*D27
70
1
10
0
20
0
3
*D27
1

0
LINE
5
13F
100
AcDbEntity
8
dimensions
6
ByLayer
62
256
370
-1
100
AcDbLine
10
21
20
661.2603
11
21
21
96.6001
0
LINE
5
140
100
AcDbEntity
8
dimensions
6
ByLayer
62
256
370
-1
100
AcDbLine
10
49
20
654.2603
11
14
21
654.2603
0
LINE
5
141
100
AcDbEntity
8
dimensions
6
ByLayer
62
256
370
-1
100
AcDbLine
10
24.5
20
657.7603
11
17.5
21
650.7603
0
LINE
5
142
100
AcDbEntity
8
dimensions
6
ByLayer
62
256
370
-1
100
AcDbLine
10
49
20
103.6001
11
14
21
103.6001
0
LINE
5
143
100
AcDbEntity
8
dimensions
6
ByLayer
62
256
370
-1
100
AcDbLine
10
24.5
20
107.1001
11
17.5
21
100.1001
0
TEXT
5
144
100
AcDbEntity
8
text
6
ByLayer
62
256
370
-1
100
AcDbText
10
-15.4
20
371.9302
30
0
40
14
1
551
50
-270
41
0.9
7
standard
72
1
11
3.5
21
371.9302
31
0
100
AcDbText
0
ENDBLK
5
145
330
46
100
AcDbEntity
8
0
100
AcDbBlockEnd
0
BLOCK
5
146
330
65
100
AcDbEntity
8
0
100
AcDbBlockBegin
2
*D28
70
1
10
0
20
0
3
*D28
1

0
LINE
5
147
100
AcDbEntity
8
dimensions
6
ByLayer
62
256
370
-1
100
AcDbLine
10
21
20
110.6001
11
21
21
54.6
0
LINE
5
148
100
AcDbEntity
8
dimensions
6
ByLayer
62
256
370
-1
100
AcDbLine
10
49
20
103.6001
11
14
21
103.6001
0
LINE
5
149
100
AcDbEntity
8
dimensions
6
ByLayer
62
256
370
-1
100
AcDbLine
10
24.5
20
107.1001
11
17.5
21
100.1001
0
LINE
5
14A
100
AcDbEntity
8
dimensions
6
ByLayer
62
256
370
-1
100
AcDbLine
10
49
20
61.6
11
14
21
61.6
0
LINE
5
14B
100
AcDbEntity
8
dimensions
6
ByLayer
62
256
370
-1
100
AcDbLine
10
24.5
20
65.1
11
17.5
21
58.1
0
TEXT
5
14C
100
AcDbEntity
8
text
6
ByLayer
62
256
370
-1
100
AcDbText
10
-9.1
20
75.60005
30
0
40
14
1
42
50
-270
41
0.9
7
standard
72
1
11
3.5
21
75.60005
31
0
100
AcDbText
0
ENDBLK
5
14D
330
46
100
AcDbEntity
8
0
100
AcDbBlockEnd
0
BLOCK
5
14E
330
66
100
AcDbEntity
8
0
100
AcDbBlockBegin
2
*D29
70
1
10
0
20
0
3
*D29
1

0
LINE
5
14F
100
AcDbEntity
8
dimensions
6
ByLayer
62
256
370
-1
100
AcDbLine
10
1130.4118
20
815.3365
11
1130.4118
21
685.2834
0
LINE
5
150
100
AcDbEntity
8
dimensions
6
ByLayer
62
256
370
-1
100
AcDbLine
10
1102.4118
20
808.3365
11
1137.4118
21
808.3365
0
LINE
5
151
100
AcDbEntity
8
dimensions
6
ByLayer
62
256
370
-1
100
AcDbLine
10
1133.9118
20
811.8365
11
1126.9118
21
804.8365
0
LINE
5
152
100
AcDbEntity
8
dimensions
6
ByLayer
62
256
370
-1
100
AcDbLine
10
1102.4118
20
692.2834
11
1137.4118
21
692.2834
0
LINE
5
153
100
AcDbEntity
8
dimensions
6
ByLayer
62
256
370
-1
100
AcDbLine
10
1133.9118
20
695.7834
11
1126.9118
21
688.7834
0
TEXT
5
154
100
AcDbEntity
8
text
6
ByLayer
62
256
370
-1
100
AcDbText
10
1094.0118
20
743.30995
30
0
40
14
1
116
50
-270
41
0.9
7
standard
72
1
11
1112.9118
21
743.30995
31
0
100
AcDbText
0
ENDBLK
5
155
330
46
100
AcDbEntity
8
0
100
AcDbBlockEnd
0
BLOCK
5
156
330
67
100
AcDbEntity
8
0
100
AcDbBlockBegin
2
*D30
70
1
10
0
20
0
3
*D30
1

0
LINE
5
157
100
AcDbEntity
8
dimensions
6
ByLayer
62
256
370
-1
100
AcDbLine
10
1130.4118
20
699.2834
11
1130.4118
21
663.7109
0
LINE
5
158
100
AcDbEntity
8
dimensions
6
ByLayer
62
256
370
-1
100
AcDbLine
10
1102.4118
20
692.2834
11
1137.4118
21
692.2834
0
LINE
5
159
100
AcDbEntity
8
dimensions
6
ByLayer
62
256
370
-1
100
AcDbLine
10
1133.9118
20
695.7834
11
1126.9118
21
688.7834
0
LINE
5
15A
100
AcDbEntity
8
dimensions
6
ByLayer
62
256
370
-1
100
AcDbLine
10
1102.4118
20
670.7109
11
1137.4118
21
670.7109
0
LINE
5
15B
100
AcDbEntity
8
dimensions
6
ByLayer
62
256
370
-1
100
AcDbLine
10
1133.9118
20
674.2109
11
1126.9118
21
667.2109
0
TEXT
5
15C
100
AcDbEntity
8
text
6
ByLayer
62
256
370
-1
100
AcDbText
10
1100.3118
20
674.49715
30
0
40
14
1
22
50
-270
41
0.9
7
standard
72
1
11
1112.9118
21
674.49715
31
0
100
AcDbText
0
ENDBLK
5
15D
330
46
100
AcDbEntity
8
0
100
AcDbBlockEnd
0
BLOCK
5
15E
330
68
100
AcDbEntity
8
0
100
AcDbBlockBegin
2
*D31
70
1
10
0
20
0
3
*D31
1

0
LINE
5
15F
100
AcDbEntity
8
dimensions
6
ByLayer
62
256
370
-1
100
AcDbLine
10
1130.4118
20
677.7109
11
1130.4118
21
330.772
0
LINE
5
160
100
AcDbEntity
8
dimensions
6
ByLayer
62
256
370
-1
100
AcDbLine
10
1102.4118
20
670.7109
11
1137.4118
21
670.7109
0
LINE
5
161
100
AcDbEntity
8
dimensions
6
ByLayer
62
256
370
-1
100
AcDbLine
10
1133.9118
20
674.2109
11
1126.9118
21
667.2109
0
LINE
5
162
100
AcDbEntity
8
dimensions
6
ByLayer
62
256
370
-1
100
AcDbLine
10
1102.4118
20
337.772
11
1137.4118
21
337.772
0
LINE
5
163
100
AcDbEntity
8
dimensions
6
ByLayer
62
256
370
-1
100
AcDbLine
10
1133.9118
20
341.272
11
1126.9118
21
334.272
0
TEXT
5
164
100
AcDbEntity
8
text
6
ByLayer
62
256
370
-1
100
AcDbText
10
1094.0118
20
497.24145
30
0
40
14
1
333
50
-270
41
0.9
7
standard
72
1
11
1112.9118
21
497.24145
31
0
100
AcDbText
0
ENDBLK
5
165
330
46
100
AcDbEntity
8
0
100
AcDbBlockEnd
0
BLOCK
5
166
330
69
100
AcDbEntity
8
0
100
AcDbBlockBegin
2
*D32
70
1
10
0
20
0
3
*D32
1

0
LINE
5
167
100
AcDbEntity
8
dimensions
6
ByLayer
62
256
370
-1
100
AcDbLine
10
1130.4118
20
344.772
11
1130.4118
21
319.228
0
LINE
5
168
100
AcDbEntity
8
dimensions
6
ByLayer
62
256
370
-1
100
AcDbLine
10
1102.4118
20
337.772
11
1137.4118
21
337.772
0
LINE
5
169
100
AcDbEntity
8
dimensions
6
ByLayer
62
256
370
-1
100
AcDbLine
10
1133.9118
20
341.272
11
1126.9118
21
334.272
0
LINE
5
16A
100
AcDbEntity
8
dimensions
6
ByLayer
62
256
370
-1
100
AcDbLine
10
1102.4118
20
326.228
11
1137.4118
21
326.228
0
LINE
5
16B
100
AcDbEntity
8
dimensions
6
ByLayer
62
256
370
-1
100
AcDbLine
10
1133.9118
20
329.728
11
1126.9118
21
322.728
0
TEXT
5
16C
100
AcDbEntity
8
text
6
ByLayer
62
256
370
-1
100
AcDbText
10
1100.3118
20
325
30
0
40
14
1
12
50
-270
41
0.9
7
standard
72
1
11
1112.9118
21
325
31
0
100
AcDbText
0
ENDBLK
5
16D
330
46
100
AcDbEntity
8
0
100
AcDbBlockEnd
0
BLOCK
5
16E
330
6A
100
AcDbEntity
8
0
100
AcDbBlockBegin
2
*D33
70
1
10
0
20
0
3
*D33
1

0
LINE
5
16F
100
AcDbEntity
8
dimensions
6
ByLayer
62
256
370
-1
100
AcDbLine
10
1130.4118
20
333.228
11
1130.4118
21
144.9742
0
LINE
5
170
100
AcDbEntity
8
dimensions
6
ByLayer
62
256
370
-1
100
AcDbLine
10
1102.4118
20
326.228
11
1137.4118
21
326.228
0
LINE
5
171
100
AcDbEntity
8
dimensions
6
ByLayer
62
256
370
-1
100
AcDbLine
10
1133.9118
20
329.728
11
1126.9118
21
322.728
0
LINE
5
172
100
AcDbEntity
8
dimensions
6
ByLayer
62
256
370
-1
100
AcDbLine
10
1102.4118
20
151.9742
11
1137.4118
21
151.9742
0
LINE
5
173
100
AcDbEntity
8
dimensions
6
ByLayer
62
256
370
-1
100
AcDbLine
10
1133.9118
20
155.4742
11
1126.9118
21
148.4742
0
TEXT
5
174
100
AcDbEntity
8
text
6
ByLayer
62
256
370
-1
100
AcDbText
10
1094.0118
20
232.1011
30
0
40
14
1
174
50
-270
41
0.9
7
standard
72
1
11
1112.9118
21
232.1011
31
0
100
AcDbText
0
ENDBLK
5
175
330
46
100
AcDbEntity
8
0
100
AcDbBlockEnd
0
BLOCK
5
176
330
6B
100
AcDbEntity
8
0
100
AcDbBlockBegin
2
*D34
70
1
10
0
20
0
3
*D34
1

0
LINE
5
177
100
AcDbEntity
8
dimensions
6
ByLayer
62
256
370
-1
100
AcDbLine
10
1130.4118
20
158.9742
11
1130.4118
21
119.3845
0
LINE
5
178
100
AcDbEntity
8
dimensions
6
ByLayer
62
256
370
-1
100
AcDbLine
10
1102.4118
20
151.9742
11
1137.4118
21
151.9742
0
LINE
5
179
100
AcDbEntity
8
dimensions
6
ByLayer
62
256
370
-1
100
AcDbLine
10
1133.9118
20
155.4742
11
1126.9118
21
148.4742
0
LINE
5
17A
100
AcDbEntity
8
dimensions
6
ByLayer
62
256
370
-1
100
AcDbLine
10
1102.4118
20
126.3845
11
1137.4118
21
126.3845
0
LINE
5
17B
100
AcDbEntity
8
dimensions
6
ByLayer
62
256
370
-1
100
AcDbLine
10
1133.9118
20
129.8845
11
1126.9118
21
122.8845
0
TEXT
5
17C
100
AcDbEntity
8
text
6
ByLayer
62
256
370
-1
100
AcDbText
10
1100.3118
20
132.17935
30
0
40
14
1
26
50
-270
41
0.9
7
standard
72
1
11
1112.9118
21
132.17935
31
0
100
AcDbText
0
ENDBLK
5
17D
330
46
100
AcDbEntity
8
0
100
AcDbBlockEnd
0
BLOCK
5
17E
330
6C
100
AcDbEntity
8
0
100
AcDbBlockBegin
2
*D35
70
1
10
0
20
0
3
*D35
1

0
LINE
5
17F
100
AcDbEntity
8
dimensions
6
ByLayer
62
256
370
-1
100
AcDbLine
10
1130.4118
20
133.3845
11
1130.4118
21
96.6
0
LINE
5
180
100
AcDbEntity
8
dimensions
6
ByLayer
62
256
370
-1
100
AcDbLine
10
1102.4118
20
126.3845
11
1137.4118
21
126.3845
0
LINE
5
181
100
AcDbEntity
8
dimensions
6
ByLayer
62
256
370
-1
100
AcDbLine
10
1133.9118
20
129.8845
11
1126.9118
21
122.8845
0
LINE
5
182
100
AcDbEntity
8
dimensions
6
ByLayer
62
256
370
-1
100
AcDbLine
10
1102.4118
20
103.6
11
1137.4118
21
103.6
0
LINE
5
183
100
AcDbEntity
8
dimensions
6
ByLayer
62
256
370
-1
100
AcDbLine
10
1133.9118
20
107.1
11
1126.9118
21
100.1
0
TEXT
5
184
100
AcDbEntity
8
text
6
ByLayer
62
256
370
-1
100
AcDbText
10
1100.3118
20
107.99225
30
0
40
14
1
23
50
-270
41
0.9
7
standard
72
1
11
1112.9118
21
107.99225
31
0
100
AcDbText
0
ENDBLK
5
185
330
46
100
AcDbEntity
8
0
100
AcDbBlockEnd
0
BLOCK
5
186
330
6D
100
AcDbEntity
8
0
100
AcDbBlockBegin
2
*D36
70
1
10
0
20
0
3
*D36
1

0
LINE
5
187
100
AcDbEntity
8
dimensions
6
ByLayer
62
256
370
-1
100
AcDbLine
10
1130.4118
20
110.6
11
1130.4118
21
54.6
0
LINE
5
188
100
AcDbEntity
8
dimensions
6
ByLayer
62
256
370
-1
100
AcDbLine
10
1102.4118
20
103.6
11
1137.4118
21
103.6
0
LINE
5
189
100
AcDbEntity
8
dimensions
6
ByLayer
62
256
370
-1
100
AcDbLine
10
1133.9118
20
107.1
11
1126.9118
21
100.1
0
LINE
5
18A
100
AcDbEntity
8
dimensions
6
ByLayer
62
256
370
-1
100
AcDbLine
10
1102.4118
20
61.6
11
1137.4118
21
61.6
0
LINE
5
18B
100
AcDbEntity
8
dimensions
6
ByLayer
62
256
370
-1
100
AcDbLine
10
1133.9118
20
65.1
11
1126.9118
21
58.1
0
TEXT
5
18C
100
AcDbEntity
8
text
6
ByLayer
62
256
370
-1
100
AcDbText
10
1100.3118
20
75.6
30
0
40
14
1
42
50
-270
41
0.9
7
standard
72
1
11
1112.9118
21
75.6
31
0
100
AcDbText
0
ENDBLK
5
18D
330
46
100
AcDbEntity
8
0
100
AcDbBlockEnd
0
ENDSEC
0
SECTION
2
ENTITIES
0
DIMENSION
5
18E
100
AcDbEntity
8
dimensions
6
ByLayer
62
256
370
-1
100
AcDbDimension
2
*D1
10
847.9311
20
375.8361
30
0
11
774.3747
21
375.8361
31
0
70
33
71
5
3
Standard
53
0
210
0
220
0
230
1
100
AcDbAlignedDimension
13
700.8183
23
352.1081
33
0
14
847.9311
24
352.1081
34
0
0
DIMENSION
5
18F
100
AcDbEntity
8
dimensions
6
ByLayer
62
256
370
-1
100
AcDbDimension
2
*D2
10
1047.8118
20
375.8361
30
0
11
947.87145
21
375.8361
31
0
70
33
71
5
3
Standard
53
0
210
0
220
0
230
1
100
AcDbAlignedDimension
13
847.9311
23
352.1081
33
0
14
1047.8118
24
352.1081
34
0
0
DIMENSION
5
190
100
AcDbEntity
8
dimensions
6
ByLayer
62
256
370
-1
100
AcDbDimension
2
*D3
10
585.8223
20
315.0647
30
0
11
585.8223
21
465.09765
31
0
70
33
71
5
3
Standard
53
0
210
0
220
0
230
1
100
AcDbAlignedDimension
13
596.8232
23
615.1306
33
0
14
596.8232
24
315.0647
34
0
0
DIMENSION
5
191
100
AcDbEntity
8
dimensions
6
ByLayer
62
256
370
-1
100
AcDbDimension
2
*D4
10
585.8223
20
302.8747
30
0
11
585.8223
21
308.9697
31
0
70
33
71
5
3
Standard
53
0
210
0
220
0
230
1
100
AcDbAlignedDimension
13
596.8232
23
315.0647
33
0
14
596.8232
24
302.8747
34
0
0
DIMENSION
5
192
100
AcDbEntity
8
dimensions
6
ByLayer
62
256
370
-1
100
AcDbDimension
2
*D5
10
585.8223
20
265.809
30
0
11
585.8223
21
284.34185
31
0
70
33
71
5
3
Standard
53
0
210
0
220
0
230
1
100
AcDbAlignedDimension
13
596.8232
23
302.8747
33
0
14
596.8232
24
265.809
34
0
0
DIMENSION
5
193
100
AcDbEntity
8
dimensions
6
ByLayer
62
256
370
-1
100
AcDbDimension
2
*D6
10
585.8223
20
103.6001
30
0
11
585.8223
21
184.70455
31
0
70
33
71
5
3
Standard
53
0
210
0
220
0
230
1
100
AcDbAlignedDimension
13
596.8232
23
265.809
33
0
14
596.8232
24
103.6001
34
0
0
DIMENSION
5
194
100
AcDbEntity
8
dimensions
6
ByLayer
62
256
370
-1
100
AcDbDimension
2
*D7
10
103.6
20
848.9365
30
0
11
82.6
21
848.9365
31
0
70
33
71
5
3
Standard
53
0
210
0
220
0
230
1
100
AcDbAlignedDimension
13
61.6
23
820.9365
33
0
14
103.6
24
820.9365
34
0
0
DIMENSION
5
195
100
AcDbEntity
8
dimensions
6
ByLayer
62
256
370
-1
100
AcDbDimension
2
*D8
10
447.8072
20
848.9365
30
0
11
275.7036
21
848.9365
31
0
70
33
71
5
3
Standard
53
0
210
0
220
0
230
1
100
AcDbAlignedDimension
13
103.6
23
820.9365
33
0
14
447.8072
24
820.9365
34
0
0
DIMENSION
5
196
100
AcDbEntity
8
dimensions
6
ByLayer
62
256
370
-1
100
AcDbDimension
2
*D9
10
466.1647
20
848.9365
30
0
11
456.98595
21
848.9365
31
0
70
33
71
5
3
Standard
53
0
210
0
220
0
230
1
100
AcDbAlignedDimension
13
447.8072
23
820.9365
33
0
14
466.1647
24
820.9365
34
0
0
DIMENSION
5
197
100
AcDbEntity
8
dimensions
6
ByLayer
62
256
370
-1
100
AcDbDimension
2
*D10
10
688.8598
20
848.9365
30
0
11
577.51225
21
848.9365
31
0
70
33
71
5
3
Standard
53
0
210
0
220
0
230
1
100
AcDbAlignedDimension
13
466.1647
23
820.9365
33
0
14
688.8598
24
820.9365
34
0
0
DIMENSION
5
198
100
AcDbEntity
8
dimensions
6
ByLayer
62
256
370
-1
100
AcDbDimension
2
*D11
10
700.8183
20
848.9365
30
0
11
694.83905
21
848.9365
31
0
70
33
71
5
3
Standard
53
0
210
0
220
0
230
1
100
AcDbAlignedDimension
13
688.8598
23
820.9365
33
0
14
700.8183
24
820.9365
34
0
0
DIMENSION
5
199
100
AcDbEntity
8
dimensions
6
ByLayer
62
256
370
-1
100
AcDbDimension
2
*D12
10
1047.8118
20
848.9365
30
0
11
874.31505
21
848.9365
31
0
70
33
71
5
3
Standard
53
0
210
0
220
0
230
1
100
AcDbAlignedDimension
13
700.8183
23
820.9365
33
0
14
1047.8118
24
820.9365
34
0
0
DIMENSION
5
19A
100
AcDbEntity
8
dimensions
6
ByLayer
62
256
370
-1
100
AcDbDimension
2
*D13
10
1089.8118
20
848.9365
30
0
11
1068.8118
21
848.9365
31
0
70
33
71
5
3
Standard
53
0
210
0
220
0
230
1
100
AcDbAlignedDimension
13
1047.8118
23
820.9365
33
0
14
1089.8118
24
820.9365
34
0
0
DIMENSION
5
19B
100
AcDbEntity
8
dimensions
6
ByLayer
62
256
370
-1
100
AcDbDimension
2
*D14
10
103.6
20
21
30
0
11
82.6
21
21
31
0
70
33
71
5
3
Standard
53
0
210
0
220
0
230
1
100
AcDbAlignedDimension
13
61.6
23
49
33
0
14
103.6
24
49
34
0
0
DIMENSION
5
19C
100
AcDbEntity
8
dimensions
6
ByLayer
62
256
370
-1
100
AcDbDimension
2
*D15
10
447.8072
20
21
30
0
11
275.7036
21
21
31
0
70
33
71
5
3
Standard
53
0
210
0
220
0
230
1
100
AcDbAlignedDimension
13
103.6
23
49
33
0
14
447.8072
24
49
34
0
0
DIMENSION
5
19D
100
AcDbEntity
8
dimensions
6
ByLayer
62
256
370
-1
100
AcDbDimension
2
*D16
10
466.1647
20
21
30
0
11
456.98595
21
21
31
0
70
33
71
5
3
Standard
53
0
210
0
220
0
230
1
100
AcDbAlignedDimension
13
447.8072
23
49
33
0
14
466.1647
24
49
34
0
0
DIMENSION
5
19E
100
AcDbEntity
8
dimensions
6
ByLayer
62
256
370
-1
100
AcDbDimension
2
*D17
10
688.86
20
21
30
0
11
577.51235
21
21
31
0
70
33
71
5
3
Standard
53
0
210
0
220
0
230
1
100
AcDbAlignedDimension
13
466.1647
23
49
33
0
14
688.86
24
49
34
0
0
DIMENSION
5
19F
100
AcDbEntity
8
dimensions
6
ByLayer
62
256
370
-1
100
AcDbDimension
2
*D18
10
700.8183
20
21
30
0
11
694.83915
21
21
31
0
70
33
71
5
3
Standard
53
0
210
0
220
0
230
1
100
AcDbAlignedDimension
13
688.86
23
49
33
0
14
700.8183
24
49
34
0
0
DIMENSION
5
1A0
100
AcDbEntity
8
dimensions
6
ByLayer
62
256
370
-1
100
AcDbDimension
2
*D19
10
847.9313
20
21
30
0
11
774.3748
21
21
31
0
70
33
71
5
3
Standard
53
0
210
0
220
0
230
1
100
AcDbAlignedDimension
13
700.8183
23
49
33
0
14
847.9313
24
49
34
0
0
DIMENSION
5
1A1
100
AcDbEntity
8
dimensions
6
ByLayer
62
256
370
-1
100
AcDbDimension
2
*D20
10
859.9622
20
21
30
0
11
853.94675
21
21
31
0
70
33
71
5
3
Standard
53
0
210
0
220
0
230
1
100
AcDbAlignedDimension
13
847.9313
23
49
33
0
14
859.9622
24
49
34
0
0
DIMENSION
5
1A2
100
AcDbEntity
8
dimensions
6
ByLayer
62
256
370
-1
100
AcDbDimension
2
*D21
10
910.0217
20
21
30
0
11
884.99195
21
21
31
0
70
33
71
5
3
Standard
53
0
210
0
220
0
230
1
100
AcDbAlignedDimension
13
859.9622
23
49
33
0
14
910.0217
24
49
34
0
0
DIMENSION
5
1A3
100
AcDbEntity
8
dimensions
6
ByLayer
62
256
370
-1
100
AcDbDimension
2
*D22
10
1047.8118
20
21
30
0
11
978.91675
21
21
31
0
70
33
71
5
3
Standard
53
0
210
0
220
0
230
1
100
AcDbAlignedDimension
13
910.0217
23
49
33
0
14
1047.8118
24
49
34
0
0
DIMENSION
5
1A4
100
AcDbEntity
8
dimensions
6
ByLayer
62
256
370
-1
100
AcDbDimension
2
*D23
10
1089.8118
20
21
30
0
11
1068.8118
21
21
31
0
70
33
71
5
3
Standard
53
0
210
0
220
0
230
1
100
AcDbAlignedDimension
13
1047.8118
23
49
33
0
14
1089.8118
24
49
34
0
0
DIMENSION
5
1A5
100
AcDbEntity
8
dimensions
6
ByLayer
62
256
370
-1
100
AcDbDimension
2
*D24
10
21
20
773.9057
30
0
11
21
21
791.1211
31
0
70
33
71
5
3
Standard
53
0
210
0
220
0
230
1
100
AcDbAlignedDimension
13
49
23
808.3365
33
0
14
49
24
773.9057
34
0
0
DIMENSION
5
1A6
100
AcDbEntity
8
dimensions
6
ByLayer
62
256
370
-1
100
AcDbDimension
2
*D25
10
21
20
674.3148
30
0
11
21
21
724.11025
31
0
70
33
71
5
3
Standard
53
0
210
0
220
0
230
1
100
AcDbAlignedDimension
13
49
23
773.9057
33
0
14
49
24
674.3148
34
0
0
DIMENSION
5
1A7
100
AcDbEntity
8
dimensions
6
ByLayer
62
256
370
-1
100
AcDbDimension
2
*D26
10
21
20
654.2603
30
0
11
21
21
664.28755
31
0
70
33
71
5
3
Standard
53
0
210
0
220
0
230
1
100
AcDbAlignedDimension
13
49
23
674.3148
33
0
14
49
24
654.2603
34
0
0
DIMENSION
5
1A8
100
AcDbEntity
8
dimensions
6
ByLayer
62
256
370
-1
100
AcDbDimension
2
*D27
10
21
20
103.6001
30
0
11
21
21
378.9302
31
0
70
33
71
5
3
Standard
53
0
210
0
220
0
230
1
100
AcDbAlignedDimension
13
49
23
654.2603
33
0
14
49
24
103.6001
34
0
0
DIMENSION
5
1A9
100
AcDbEntity
8
dimensions
6
ByLayer
62
256
370
-1
100
AcDbDimension
2
*D28
10
21
20
61.6
30
0
11
21
21
82.60005
31
0
70
33
71
5
3
Standard
53
0
210
0
220
0
230
1
100
AcDbAlignedDimension
13
49
23
103.6001
33
0
14
49
24
61.6
34
0
0
DIMENSION
5
1AA
100
AcDbEntity
8
dimensions
6
ByLayer
62
256
370
-1
100
AcDbDimension
2
*D29
10
1130.4118
20
692.2834
30
0
11
1130.4118
21
750.30995
31
0
70
33
71
5
3
Standard
53
0
210
0
220
0
230
1
100
AcDbAlignedDimension
13
1102.4118
23
808.3365
33
0
14
1102.4118
24
692.2834
34
0
0
DIMENSION
5
1AB
100
AcDbEntity
8
dimensions
6
ByLayer
62
256
370
-1
100
AcDbDimension
2
*D30
10
1130.4118
20
670.7109
30
0
11
1130.4118
21
681.49715
31
0
70
33
71
5
3
Standard
53
0
210
0
220
0
230
1
100
AcDbAlignedDimension
13
1102.4118
23
692.2834
33
0
14
1102.4118
24
670.7109
34
0
0
DIMENSION
5
1AC
100
AcDbEntity
8
dimensions
6
ByLayer
62
256
370
-1
100
AcDbDimension
2
*D31
10
1130.4118
20
337.772
30
0
11
1130.4118
21
504.24145
31
0
70
33
71
5
3
Standard
53
0
210
0
220
0
230
1
100
AcDbAlignedDimension
13
1102.4118
23
670.7109
33
0
14
1102.4118
24
337.772
34
0
0
DIMENSION
5
1AD
100
AcDbEntity
8
dimensions
6
ByLayer
62
256
370
-1
100
AcDbDimension
2
*D32
10
1130.4118
20
326.228
30
0
11
1130.4118
21
332
31
0
70
33
71
5
3
Standard
53
0
210
0
220
0
230
1
100
AcDbAlignedDimension
13
1102.4118
23
337.772
33
0
14
1102.4118
24
326.228
34
0
0
DIMENSION
5
1AE
100
AcDbEntity
8
dimensions
6
ByLayer
62
256
370
-1
100
AcDbDimension
2
*D33
10
1130.4118
20
151.9742
30
0
11
1130.4118
21
239.1011
31
0
70
33
71
5
3
Standard
53
0
210
0
220
0
230
1
100
AcDbAlignedDimension
13
1102.4118
23
326.228
33
0
14
1102.4118
24
151.9742
34
0
0
DIMENSION
5
1AF
100
AcDbEntity
8
dimensions
6
ByLayer
62
256
370
-1
100
AcDbDimension
2
*D34
10
1130.4118
20
126.3845
30
0
11
1130.4118
21
139.17935
31
0
70
33
71
5
3
Standard
53
0
210
0
220
0
230
1
100
AcDbAlignedDimension
13
1102.4118
23
151.9742
33
0
14
1102.4118
24
126.3845
34
0
0
DIMENSION
5
1B0
100
AcDbEntity
8
dimensions
6
ByLayer
62
256
370
-1
100
AcDbDimension
2
*D35
10
1130.4118
20
103.6
30
0
11
1130.4118
21
114.99225
31
0
70
33
71
5
3
Standard
53
0
210
0
220
0
230
1
100
AcDbAlignedDimension
13
1102.4118
23
126.3845
33
0
14
1102.4118
24
103.6
34
0
0
DIMENSION
5
1B1
100
AcDbEntity
8
dimensions
6
ByLayer
62
256
370
-1
100
AcDbDimension
2
*D36
10
1130.4118
20
61.6
30
0
11
1130.4118
21
82.6
31
0
70
33
71
5
3
Standard
53
0
210
0
220
0
230
1
100
AcDbAlignedDimension
13
1102.4118
23
103.6
33
0
14
1102.4118
24
61.6
34
0
0
LWPOLYLINE
5
1B2
100
AcDbEntity
8
walls
6
ByLayer
62
256
370
-1
100
AcDbPolyline
90
63
70
1
10
952.0217
20
109.9742
10
952.0217
20
84.3845
10
889.9313
20
84.3845
10
889.9313
20
61.6
10
658.8183
20
61.6
10
658.8183
20
61.6001
10
627.1724
20
61.6001
10
627.1724
20
103.6001
10
688.86
20
103.6001
10
688.86
20
166.8282
10
700.8183
20
166.8282
10
700.8183
20
103.6
10
847.9313
20
103.6
10
847.9313
20
212.9695
10
859.9622
20
212.9695
10
859.9622
20
126.3845
10
910.0217
20
126.3845
10
910.0217
20
151.9742
10
1047.8118
20
151.9742
10
1047.8118
20
326.228
10
880.504
20
326.228
10
880.504
20
305.2526
10
859.9622
20
305.2526
10
859.9622
20
296.3218
10
847.9313
20
296.3218
10
847.9313
20
302.8747
10
844.5938
20
302.8747
10
844.5938
20
315.0647
10
847.9311
20
315.0647
10
847.9311
20
337.772
10
1047.8118
20
337.772
10
1047.8118
20
670.7109
10
996.5697
20
662.5031
10
993.2235
20
683.394
10
1047.8118
20
692.2834
10
1047.8118
20
808.3365
10
700.8183
20
748.004
10
700.8183
20
635.7773
10
761.4203
20
645.646
10
764.6698
20
625.3581
10
700.8183
20
615.1306
10
700.8183
20
315.0647
10
762.1734
20
315.0647
10
762.1734
20
302.8747
10
700.8183
20
302.8747
10
700.8183
20
259.1111
10
688.86
20
259.1111
10
688.86
20
265.809
10
613.4276
20
265.809
10
613.4276
20
302.8747
10
601.7499
20
302.8747
10
601.7499
20
315.0647
10
688.8598
20
315.0647
10
688.8598
20
615.1306
10
663.9251
20
615.1306
10
663.9251
20
657.1306
10
697.4756
20
657.1306
10
700.8083
20
657.6644
10
700.8083
20
748.0124
10
1047.8218
20
808.3484
10
1047.8218
20
713.2479
10
1089.8118
20
719.9737
10
1089.8118
20
109.9742
0
LWPOLYLINE
5
1B3
100
AcDbEntity
8
walls
6
ByLayer
62
256
370
-1
100
AcDbPolyline
90
34
70
1
10
466.1647
20
315.0647
10
521.3744
20
315.0647
10
521.3744
20
302.8747
10
466.1648
20
302.8747
10
466.1648
20
242.0422
10
447.8072
20
242.0422
10
447.8072
20
654.2603
10
376.689
20
654.2603
10
376.689
20
674.3148
10
447.8072
20
674.3148
10
447.8072
20
773.9057
10
103.6
20
773.9057
10
103.6
20
674.3148
10
158.0537
20
674.3148
10
158.0537
20
654.2603
10
103.6
20
654.2603
10
103.6
20
103.6001
10
447.8072
20
103.6001
10
447.8072
20
169.0607
10
466.1648
20
169.0607
10
466.1648
20
103.6001
10
539.6524
20
103.6001
10
539.6524
20
61.6001
10
61.6
20
61.6001
10
61.6
20
696.2603
10
103.59
20
696.2603
10
103.59
20
773.9157
10
447.8172
20
773.9157
10
447.8172
20
696.2603
10
489.8072
20
696.2603
10
489.8072
20
657.1306
10
504.6744
20
657.1306
10
504.6744
20
615.1306
10
466.1647
20
615.1306
0
LWPOLYLINE
5
1B4
100
AcDbEntity
8
walls
6
ByLayer
62
256
370
-1
100
AcDbPolyline
90
4
70
1
10
617.486
20
615.1306
10
617.2627
20
615.1306
10
617.2627
20
657.1306
10
617.486
20
657.1306
0
LWPOLYLINE
5
1B5
100
AcDbEntity
8
walls
6
ByLayer
62
256
370
-1
100
AcDbPolyline
90
4
70
1
10
822.4163
20
634.6078
10
822.2291
20
634.5778
10
818.9556
20
655.0153
10
819.1427
20
655.0458
0
LWPOLYLINE
5
1B6
100
AcDbEntity
8
walls
6
ByLayer
62
256
370
-1
100
AcDbPolyline
90
4
70
1
10
945.3654
20
654.3014
10
944.8258
20
654.2149
10
941.5012
20
674.9713
10
942.0406
20
675.0591
0
LWPOLYLINE
5
1B7
100
AcDbEntity
8
walls
6
ByLayer
62
256
370
-1
100
AcDbPolyline
90
4
70
1
10
252.9565
20
654.2603
10
252.8793
20
654.2603
10
252.8793
20
674.3148
10
252.9565
20
674.3148
0
LWPOLYLINE
5
1B8
100
AcDbEntity
8
walls
6
ByLayer
62
256
370
-1
100
AcDbPolyline
90
4
70
1
10
296.689
20
654.2603
10
294.2058
20
654.2603
10
294.2058
20
674.3148
10
296.689
20
674.3148
0
LWPOLYLINE
5
1B9
100
AcDbEntity
8
symbols
6
ByLayer
62
256
370
-1
100
AcDbPolyline
90
4
70
1
10
160.7762
20
436.9889
10
160.7762
20
537.0003
10
110.7762
20
537.0003
10
110.7762
20
436.9889
0
LWPOLYLINE
5
1BA
100
AcDbEntity
8
symbols
6
ByLayer
62
256
370
-1
100
AcDbPolyline
90
2
70
0
10
158.7762
20
436.9889
10
158.7762
20
537.0003
0
LWPOLYLINE
5
1BB
100
AcDbEntity
8
symbols
6
ByLayer
62
256
370
-1
100
AcDbPolyline
90
2
70
0
10
158.7762
20
486.9946
10
160.7762
20
486.9946
0
LWPOLYLINE
5
1BC
100
AcDbEntity
8
symbols
6
ByLayer
62
256
370
-1
100
AcDbPolyline
90
3
70
0
10
160.7762
20
488.9946
10
162.7762
20
488.9946
10
162.7762
20
491.9946
0
LWPOLYLINE
5
1BD
100
AcDbEntity
8
symbols
6
ByLayer
62
256
370
-1
100
AcDbPolyline
90
3
70
0
10
160.7762
20
484.9946
10
162.7762
20
484.9946
10
162.7762
20
481.9946
0
LWPOLYLINE
5
1BE
100
AcDbEntity
8
symbols
6
ByLayer
62
256
370
-1
100
AcDbPolyline
90
4
70
1
10
390.2197
20
608.6571
10
390.2197
20
508.6571
10
440.2197
20
508.6571
10
440.2197
20
608.6571
0
LWPOLYLINE
5
1BF
100
AcDbEntity
8
symbols
6
ByLayer
62
256
370
-1
100
AcDbPolyline
90
2
70
0
10
392.2197
20
608.6571
10
392.2197
20
508.6571
0
LWPOLYLINE
5
1C0
100
AcDbEntity
8
symbols
6
ByLayer
62
256
370
-1
100
AcDbPolyline
90
2
70
0
10
392.2197
20
558.6571
10
390.2197
20
558.6571
0
LWPOLYLINE
5
1C1
100
AcDbEntity
8
symbols
6
ByLayer
62
256
370
-1
100
AcDbPolyline
90
3
70
0
10
390.2197
20
556.6571
10
388.2197
20
556.6571
10
388.2197
20
553.6571
0
LWPOLYLINE
5
1C2
100
AcDbEntity
8
symbols
6
ByLayer
62
256
370
-1
100
AcDbPolyline
90
3
70
0
10
390.2197
20
560.6571
10
388.2197
20
560.6571
10
388.2197
20
563.6571
0
CIRCLE
5
1C3
100
AcDbEntity
8
symbols
6
ByLayer
62
256
370
-1
100
AcDbCircle
10
133.28329736
20
513.65750039
40
17.5
0
CIRCLE
5
1C4
100
AcDbEntity
8
symbols
6
ByLayer
62
256
370
-1
100
AcDbCircle
10
133.28329736
20
513.65750039
40
17.5
0
CIRCLE
5
1C5
100
AcDbEntity
8
symbols
6
ByLayer
62
256
370
-1
100
AcDbCircle
10
133.28329736
20
513.65750039
40
2
0
LWPOLYLINE
5
1C6
100
AcDbEntity
8
symbols
6
ByLayer
62
256
370
-1
100
AcDbPolyline
90
44
70
1
10
185.572
20
222.371
10
186.22082078
20
222.42335325
10
186.83630938
20
222.57492266
10
187.4102303
20
222.81747273
10
187.93434805
20
223.14276797
10
188.40042712
20
223.54257288
10
188.80023203
20
224.00865195
10
189.12552727
20
224.5327697
10
189.36807734
20
225.10669062
10
189.51964675
20
225.72217922
10
189.572
20
226.371
10
189.572
20
233.371
10
189.51964675
20
234.01982078
10
189.36807734
20
234.63530938
10
189.12552727
20
235.2092303
10
188.80023203
20
235.73334805
10
188.40042712
20
236.19942712
10
187.93434805
20
236.59923203
10
187.4102303
20
236.92452727
10
186.83630938
20
237.16707734
10
186.22082078
20
237.31864675
10
185.572
20
237.371
10
114.572
20
237.371
10
113.92317922
20
237.31864675
10
113.30769062
20
237.16707734
10
112.7337697
20
236.92452727
10
112.20965195
20
236.59923203
10
111.74357288
20
236.19942712
10
111.34376797
20
235.73334805
10
111.01847273
20
235.2092303
10
110.77592266
20
234.63530938
10
110.62435325
20
234.01982078
10
110.572
20
233.371
10
110.572
20
226.371
10
110.62435325
20
225.72217922
10
110.77592266
20
225.10669062
10
111.01847273
20
224.5327697
10
111.34376797
20
224.00865195
10
111.74357288
20
223.54257288
10
112.20965195
20
223.14276797
10
112.7337697
20
222.81747273
10
113.30769062
20
222.57492266
10
113.92317922
20
222.42335325
10
114.572
20
222.371
0
LWPOLYLINE
5
1C7
100
AcDbEntity
8
symbols
6
ByLayer
62
256
370
-1
100
AcDbPolyline
90
44
70
1
10
185.572
20
397.371
10
186.22082078
20
397.42335325
10
186.83630938
20
397.57492266
10
187.4102303
20
397.81747273
10
187.93434805
20
398.14276797
10
188.40042712
20
398.54257288
10
188.80023203
20
399.00865195
10
189.12552727
20
399.5327697
10
189.36807734
20
400.10669062
10
189.51964675
20
400.72217922
10
189.572
20
401.371
10
189.572
20
408.371
10
189.51964675
20
409.01982078
10
189.36807734
20
409.63530938
10
189.12552727
20
410.2092303
10
188.80023203
20
410.73334805
10
188.40042712
20
411.19942712
10
187.93434805
20
411.59923203
10
187.4102303
20
411.92452727
10
186.83630938
20
412.16707734
10
186.22082078
20
412.31864675
10
185.572
20
412.371
10
114.572
20
412.371
10
113.92317922
20
412.31864675
10
113.30769062
20
412.16707734
10
112.7337697
20
411.92452727
10
112.20965195
20
411.59923203
10
111.74357288
20
411.19942712
10
111.34376797
20
410.73334805
10
111.01847273
20
410.2092303
10
110.77592266
20
409.63530938
10
110.62435325
20
409.01982078
10
110.572
20
408.371
10
110.572
20
401.371
10
110.62435325
20
400.72217922
10
110.77592266
20
400.10669062
10
111.01847273
20
399.5327697
10
111.34376797
20
399.00865195
10
111.74357288
20
398.54257288
10
112.20965195
20
398.14276797
10
112.7337697
20
397.81747273
10
113.30769062
20
397.57492266
10
113.92317922
20
397.42335325
10
114.572
20
397.371
0
LWPOLYLINE
5
1C8
100
AcDbEntity
8
symbols
6
ByLayer
62
256
370
-1
100
AcDbPolyline
90
24
70
1
10
188.572
20
237.371
10
189.70743636
20
237.46261818
10
190.78454141
20
237.72786465
10
191.78890302
20
238.15232728
10
192.70610908
20
238.72159394
10
193.52174747
20
239.42125253
10
194.22140606
20
240.23689092
10
194.79067272
20
241.15409698
10
195.21513535
20
242.15845859
10
195.48038182
20
243.23556364
10
195.572
20
244.371
10
195.572
20
390.371
10
195.48038182
20
391.50643636
10
195.21513535
20
392.58354141
10
194.79067272
20
393.58790302
10
194.22140606
20
394.50510908
10
193.52174747
20
395.32074747
10
192.70610908
20
396.02040606
10
191.78890302
20
396.58967272
10
190.78454141
20
397.01413535
10
189.70743636
20
397.27938182
10
188.572
20
397.371
10
105.572
20
397.371
10
105.572
20
237.371
0
LINE
5
1C9
100
AcDbEntity
8
symbols
6
ByLayer
62
256
370
-1
100
AcDbLine
10
130.572
20
237.371
11
130.572
21
397.371
0
LINE
5
1CA
100
AcDbEntity
8
symbols
6
ByLayer
62
256
370
-1
100
AcDbLine
10
130.572
20
317.371
11
195.572
21
317.371
0
CIRCLE
5
1CB
100
AcDbEntity
8
symbols
6
ByLayer
62
256
370
-1
100
AcDbCircle
10
132.83191187
20
205.80310166
40
19.16230011
0
CIRCLE
5
1CC
100
AcDbEntity
8
symbols
6
ByLayer
62
256
370
-1
100
AcDbCircle
10
132.83191187
20
205.80310166
40
19.16230011
0
CIRCLE
5
1CD
100
AcDbEntity
8
symbols
6
ByLayer
62
256
370
-1
100
AcDbCircle
10
132.83191187
20
205.80310166
40
2
0
LWPOLYLINE
5
1CE
100
AcDbEntity
8
symbols
6
ByLayer
62
256
370
-1
100
AcDbPolyline
90
44
70
1
10
331.1398
20
184.2975
10
331.08744675
20
184.94632078
10
330.93587734
20
185.56180938
10
330.69332727
20
186.1357303
10
330.36803203
20
186.65984805
10
329.96822712
20
187.12592712
10
329.50214805
20
187.52573203
10
328.9780303
20
187.85102727
10
328.40410938
20
188.09357734
10
327.78862078
20
188.24514675
10
327.1398
20
188.2975
10
320.1398
20
188.2975
10
319.49097922
20
188.24514675
10
318.87549062
20
188.09357734
10
318.3015697
20
187.85102727
10
317.77745195
20
187.52573203
10
317.31137288
20
187.12592712
10
316.91156797
20
186.65984805
10
316.58627273
20
186.1357303
10
316.34372266
20
185.56180938
10
316.19215325
20
184.94632078
10
316.1398
20
184.2975
10
316.1398
20
113.2975
10
316.19215325
20
112.64867922
10
316.34372266
20
112.03319062
10
316.58627273
20
111.4592697
10
316.91156797
20
110.93515195
10
317.31137288
20
110.46907288
10
317.77745195
20
110.06926797
10
318.3015697
20
109.74397273
10
318.87549062
20
109.50142266
10
319.49097922
20
109.34985325
10
320.1398
20
109.2975
10
327.1398
20
109.2975
10
327.78862078
20
109.34985325
10
328.40410938
20
109.50142266
10
328.9780303
20
109.74397273
10
329.50214805
20
110.06926797
10
329.96822712
20
110.46907288
10
330.36803203
20
110.93515195
10
330.69332727
20
111.4592697
10
330.93587734
20
112.03319062
10
331.08744675
20
112.64867922
10
331.1398
20
113.2975
0
LWPOLYLINE
5
1CF
100
AcDbEntity
8
symbols
6
ByLayer
62
256
370
-1
100
AcDbPolyline
90
44
70
1
10
193.566
20
184.2975
10
193.51364675
20
184.94632078
10
193.36207734
20
185.56180938
10
193.11952727
20
186.1357303
10
192.79423203
20
186.65984805
10
192.39442712
20
187.12592712
10
191.92834805
20
187.52573203
10
191.4042303
20
187.85102727
10
190.83030938
20
188.09357734
10
190.21482078
20
188.24514675
10
189.566
20
188.2975
10
182.566
20
188.2975
10
181.91717922
20
188.24514675
10
181.30169062
20
188.09357734
10
180.7277697
20
187.85102727
10
180.20365195
20
187.52573203
10
179.73757288
20
187.12592712
10
179.33776797
20
186.65984805
10
179.01247273
20
186.1357303
10
178.76992266
20
185.56180938
10
178.61835325
20
184.94632078
10
178.566
20
184.2975
10
178.566
20
113.2975
10
178.61835325
20
112.64867922
10
178.76992266
20
112.03319062
10
179.01247273
20
111.4592697
10
179.33776797
20
110.93515195
10
179.73757288
20
110.46907288
10
180.20365195
20
110.06926797
10
180.7277697
20
109.74397273
10
181.30169062
20
109.50142266
10
181.91717922
20
109.34985325
10
182.566
20
109.2975
10
189.566
20
109.2975
10
190.21482078
20
109.34985325
10
190.83030938
20
109.50142266
10
191.4042303
20
109.74397273
10
191.92834805
20
110.06926797
10
192.39442712
20
110.46907288
10
192.79423203
20
110.93515195
10
193.11952727
20
111.4592697
10
193.36207734
20
112.03319062
10
193.51364675
20
112.64867922
10
193.566
20
113.2975
0
LWPOLYLINE
5
1D0
100
AcDbEntity
8
symbols
6
ByLayer
62
256
370
-1
100
AcDbPolyline
90
24
70
1
10
316.1398
20
187.2975
10
316.04818182
20
188.43293636
10
315.78293535
20
189.51004141
10
315.35847272
20
190.51440302
10
314.78920606
20
191.43160908
10
314.08954747
20
192.24724747
10
313.27390908
20
192.94690606
10
312.35670302
20
193.51617272
10
311.35234141
20
193.94063535
10
310.27523636
20
194.20588182
10
309.1398
20
194.2975
10
200.566
20
194.2975
10
199.43056364
20
194.20588182
10
198.35345859
20
193.94063535
10
197.34909698
20
193.51617272
10
196.43189092
20
192.94690606
10
195.61625253
20
192.24724747
10
194.91659394
20
191.43160908
10
194.34732728
20
190.51440302
10
193.92286465
20
189.51004141
10
193.65761818
20
188.43293636
10
193.566
20
187.2975
10
193.566
20
104.2975
10
316.1398
20
104.2975
0
LINE
5
1D1
100
AcDbEntity
8
symbols
6
ByLayer
62
256
370
-1
100
AcDbLine
10
316.1398
20
129.2975
11
193.566
21
129.2975
0
LWPOLYLINE
5
1D2
100
AcDbEntity
8
symbols
6
ByLayer
62
256
370
-1
100
AcDbPolyline
90
4
70
1
10
235.13425243
20
362.15188357
10
244.66231869
20
253.24558792
10
302.35354757
20
258.29291643
10
292.82548131
20
367.19921208
0
LWPOLYLINE
5
1D3
100
AcDbEntity
8
symbols
6
ByLayer
62
256
370
-1
100
AcDbPolyline
90
4
70
1
10
440.8969
20
166.52935
10
340.8969
20
166.52935
10
340.8969
20
107.50225
10
440.8969
20
107.50225
0
LWPOLYLINE
5
1D4
100
AcDbEntity
8
symbols
6
ByLayer
62
256
370
-1
100
AcDbPolyline
90
2
70
0
10
440.8969
20
164.52935
10
340.8969
20
164.52935
0
LWPOLYLINE
5
1D5
100
AcDbEntity
8
symbols
6
ByLayer
62
256
370
-1
100
AcDbPolyline
90
2
70
0
10
390.8969
20
164.52935
10
390.8969
20
166.52935
0
LWPOLYLINE
5
1D6
100
AcDbEntity
8
symbols
6
ByLayer
62
256
370
-1
100
AcDbPolyline
90
3
70
0
10
388.8969
20
166.52935
10
388.8969
20
168.52935
10
385.8969
20
168.52935
0
LWPOLYLINE
5
1D7
100
AcDbEntity
8
symbols
6
ByLayer
62
256
370
-1
100
AcDbPolyline
90
3
70
0
10
392.8969
20
166.52935
10
392.8969
20
168.52935
10
395.8969
20
168.52935
0
LWPOLYLINE
5
1D8
100
AcDbEntity
8
symbols
6
ByLayer
62
256
370
-1
100
AcDbPolyline
90
4
70
1
10
412.8071
20
596.02255
10
412.8071
20
521.47825
10
447.8071
20
521.47825
10
447.8071
20
596.02255
0
LWPOLYLINE
5
1D9
100
AcDbEntity
8
symbols
6
ByLayer
62
256
370
-1
100
AcDbPolyline
90
2
70
0
10
414.8071
20
521.47825
10
414.8071
20
596.02255
0
LWPOLYLINE
5
1DA
100
AcDbEntity
8
symbols
6
ByLayer
62
256
370
-1
100
AcDbPolyline
90
2
70
0
10
414.8071
20
558.7504
10
412.8071
20
558.7504
0
LWPOLYLINE
5
1DB
100
AcDbEntity
8
symbols
6
ByLayer
62
256
370
-1
100
AcDbPolyline
90
3
70
0
10
412.8071
20
556.7504
10
410.8071
20
556.7504
10
410.8071
20
553.7504
0
LWPOLYLINE
5
1DC
100
AcDbEntity
8
symbols
6
ByLayer
62
256
370
-1
100
AcDbPolyline
90
3
70
0
10
412.8071
20
560.7504
10
410.8071
20
560.7504
10
410.8071
20
563.7504
0
LWPOLYLINE
5
1DD
100
AcDbEntity
8
symbols
6
ByLayer
62
256
370
-1
100
AcDbPolyline
90
4
70
1
10
387.8068
20
482.1808
10
387.8068
20
255.1808
10
447.8068
20
255.1808
10
447.8068
20
482.1808
0
LWPOLYLINE
5
1DE
100
AcDbEntity
8
symbols
6
ByLayer
62
256
370
-1
100
AcDbPolyline
90
2
70
0
10
389.8068
20
482.1808
10
389.8068
20
255.1808
0
LWPOLYLINE
5
1DF
100
AcDbEntity
8
symbols
6
ByLayer
62
256
370
-1
100
AcDbPolyline
90
2
70
0
10
389.8068
20
368.6808
10
387.8068
20
368.6808
0
LWPOLYLINE
5
1E0
100
AcDbEntity
8
symbols
6
ByLayer
62
256
370
-1
100
AcDbPolyline
90
3
70
0
10
387.8068
20
366.6808
10
385.8068
20
366.6808
10
385.8068
20
363.6808
0
LWPOLYLINE
5
1E1
100
AcDbEntity
8
symbols
6
ByLayer
62
256
370
-1
100
AcDbPolyline
90
3
70
0
10
387.8068
20
370.6808
10
385.8068
20
370.6808
10
385.8068
20
373.6808
0
LWPOLYLINE
5
1E2
100
AcDbEntity
8
symbols
6
ByLayer
62
256
370
-1
100
AcDbPolyline
90
4
70
1
10
416.56553953
20
434.37634911
10
427.02422866
20
314.83298534
10
421.04706047
20
314.31005089
10
410.58837134
20
433.85341466
0
LWPOLYLINE
5
1E3
100
AcDbEntity
8
symbols
6
ByLayer
62
256
370
-1
100
AcDbPolyline
90
4
70
0
10
417.43709696
20
424.41440213
10
420.68714828
20
421.68728527
10
428.8797881
20
328.04498365
10
426.15267123
20
324.79493232
0
LWPOLYLINE
5
1E4
100
AcDbEntity
8
symbols
6
ByLayer
62
256
370
-1
100
AcDbPolyline
90
4
70
0
10
422.69173036
20
398.77480721
10
430.03901493
20
399.41761132
10
434.22249058
20
351.60026581
10
426.87520601
20
350.9574617
0
LWPOLYLINE
5
1E5
100
AcDbEntity
8
symbols
6
ByLayer
62
256
370
-1
100
AcDbPolyline
90
4
70
0
10
413.72597808
20
397.99040553
10
403.39010942
20
397.08613419
10
407.57358507
20
349.26878868
10
417.90945373
20
350.17306002
0
LWPOLYLINE
5
1E6
100
AcDbEntity
8
symbols
6
ByLayer
62
256
370
-1
100
AcDbPolyline
90
24
70
1
10
522.92065
20
315.6816
10
523.24506039
20
315.70777662
10
523.55280469
20
315.78356133
10
523.83976515
20
315.90483636
10
524.10182402
20
316.06748398
10
524.33486356
20
316.26738644
10
524.53476602
20
316.50042598
10
524.69741364
20
316.76248485
10
524.81868867
20
317.04944531
10
524.89447338
20
317.35718961
10
524.92065
20
317.6816
10
524.92065
20
373.6816
10
524.89447338
20
374.00601039
10
524.81868867
20
374.31375469
10
524.69741364
20
374.60071515
10
524.53476602
20
374.86277402
10
524.33486356
20
375.09581356
10
524.10182402
20
375.29571602
10
523.83976515
20
375.45836364
10
523.55280469
20
375.57963867
10
523.24506039
20
375.65542338
10
522.92065
20
375.6816
10
466.84835
20
375.6816
10
466.84835
20
315.6816
0
LWPOLYLINE
5
1E7
100
AcDbEntity
8
symbols
6
ByLayer
62
256
370
-1
100
AcDbPolyline
90
3
70
0
10
524.92065
20
371.6816
10
528.92065
20
371.6816
10
528.92065
20
367.6816
0
LINE
5
1E8
100
AcDbEntity
8
symbols
6
ByLayer
62
256
370
-1
100
AcDbLine
10
518.92065
20
315.6816
11
518.92065
21
375.6816
0
LWPOLYLINE
5
1E9
100
AcDbEntity
8
symbols
6
ByLayer
62
256
370
-1
100
AcDbPolyline
90
4
70
1
10
468.88485
20
611.3114
10
468.88485
20
511.3114
10
533.65855
20
511.3114
10
533.65855
20
611.3114
0
LWPOLYLINE
5
1EA
100
AcDbEntity
8
symbols
6
ByLayer
62
256
370
-1
100
AcDbPolyline
90
24
70
1
10
476.83374419
20
479.05209004
10
476.82825115
20
478.23844666
10
476.94993775
20
477.45550088
10
477.18944599
20
476.71440512
10
477.53741789
20
476.02631178
10
477.98449547
20
475.40237328
10
478.52132073
20
474.85374203
10
479.1385357
20
474.39157045
10
479.82678238
20
474.02701095
10
480.5767028
20
473.77121594
10
481.37893897
20
473.63533784
10
505.28761172
20
471.54360001
10
506.1012551
20
471.53810697
10
506.88420088
20
471.65979357
10
507.62529665
20
471.89930181
10
508.31338998
20
472.24727371
10
508.93732848
20
472.69435129
10
509.48595973
20
473.23117655
10
509.94813131
20
473.84839152
10
510.31269081
20
474.53663821
10
510.56848582
20
475.28655862
10
510.70436393
20
476.08879479
10
513.14472472
20
503.98224634
10
479.27410499
20
506.94554159
0
LWPOLYLINE
5
1EB
100
AcDbEntity
8
symbols
6
ByLayer
62
256
370
-1
100
AcDbPolyline
90
44
70
1
10
471.2426805
20
472.51450587
10
471.23718746
20
471.70086249
10
471.35887406
20
470.91791671
10
471.5983823
20
470.17682094
10
471.9463542
20
469.48872761
10
472.39343178
20
468.86478911
10
472.93025704
20
468.31615786
10
473.54747201
20
467.85398628
10
474.23571869
20
467.48942678
10
474.98563911
20
467.23363177
10
475.78787528
20
467.09775366
10
509.65849501
20
464.13445841
10
510.47213839
20
464.12896537
10
511.25508417
20
464.25065197
10
511.99617994
20
464.49016021
10
512.68427328
20
464.83813211
10
513.30821177
20
465.28520969
10
513.85684302
20
465.82203495
10
514.3190146
20
466.43924992
10
514.6835741
20
467.12749661
10
514.93936911
20
467.87741702
10
515.07524722
20
468.67965319
10
515.07524722
20
468.67965319
10
515.07634582
20
468.84238186
10
515.05200851
20
468.99897102
10
515.00410686
20
469.14719017
10
514.93451248
20
469.28480884
10
514.84509696
20
469.40959654
10
514.73773191
20
469.51932279
10
514.61428892
20
469.61175711
10
514.47663958
20
469.68466901
10
514.32665549
20
469.73582801
10
514.16620826
20
469.76300363
10
472.32603094
20
473.42354482
10
472.16330227
20
473.42464343
10
472.00671311
20
473.40030611
10
471.85849396
20
473.35240446
10
471.72087529
20
473.28281008
10
471.59608759
20
473.19339457
10
471.48636134
20
473.08602952
10
471.39392702
20
472.96258652
10
471.32101512
20
472.82493719
10
471.26985612
20
472.6749531
10
471.2426805
20
472.51450587
0
LWPOLYLINE
5
1EC
100
AcDbEntity
8
symbols
6
ByLayer
62
256
370
-1
100
AcDbPolyline
90
24
70
1
10
537.09390521
20
555.22033607
10
537.89614138
20
555.35621418
10
538.64606179
20
555.61200919
10
539.33430848
20
555.97656869
10
539.95152345
20
556.43874027
10
540.48834871
20
556.98737152
10
540.93542629
20
557.61131002
10
541.28339819
20
558.29940335
10
541.52290643
20
559.04049912
10
541.64459303
20
559.8234449
10
541.63909999
20
560.63708828
10
539.54736216
20
584.54576103
10
539.41148406
20
585.3479972
10
539.15568905
20
586.09791762
10
538.79112955
20
586.7861643
10
538.32895797
20
587.40337927
10
537.78032672
20
587.94020453
10
537.15638822
20
588.38728211
10
536.46829488
20
588.73525401
10
535.72719912
20
588.97476225
10
534.94425334
20
589.09644885
10
534.13060996
20
589.09095581
10
506.23715841
20
586.65059501
10
509.20045366
20
552.77997528
0
LWPOLYLINE
5
1ED
100
AcDbEntity
8
symbols
6
ByLayer
62
256
370
-1
100
AcDbPolyline
90
44
70
1
10
544.50304681
20
550.84945278
10
545.30528298
20
550.98533089
10
546.05520339
20
551.2411259
10
546.74345008
20
551.6056854
10
547.36066505
20
552.06785698
10
547.89749031
20
552.61648823
10
548.34456789
20
553.24042672
10
548.69253979
20
553.92852006
10
548.93204803
20
554.66961583
10
549.05373463
20
555.45256161
10
549.04824159
20
556.26620499
10
546.08494634
20
590.13682472
10
545.94906823
20
590.93906089
10
545.69327322
20
591.68898131
10
545.32871372
20
592.37722799
10
544.86654214
20
592.99444296
10
544.31791089
20
593.53126822
10
543.69397239
20
593.9783458
10
543.00587906
20
594.3263177
10
542.26478329
20
594.56582594
10
541.48183751
20
594.68751254
10
540.66819413
20
594.6820195
10
540.66819413
20
594.6820195
10
540.5077469
20
594.65484388
10
540.35776281
20
594.60368488
10
540.22011348
20
594.53077298
10
540.09667048
20
594.43833866
10
539.98930543
20
594.32861241
10
539.89988992
20
594.20382471
10
539.83029554
20
594.06620604
10
539.78239389
20
593.91798689
10
539.75805657
20
593.76139773
10
539.75915518
20
593.59866906
10
543.41969637
20
551.75849174
10
543.44687199
20
551.59804451
10
543.49803099
20
551.44806042
10
543.57094289
20
551.31041108
10
543.66337721
20
551.18696809
10
543.77310346
20
551.07960304
10
543.89789116
20
550.99018752
10
544.03550983
20
550.92059314
10
544.18372898
20
550.87269149
10
544.34031814
20
550.84835418
10
544.50304681
20
550.84945278
0
LWPOLYLINE
5
1EE
100
AcDbEntity
8
symbols
6
ByLayer
62
256
370
-1
100
AcDbPolyline
90
4
70
1
10
623.5371
20
290.8697
10
635.5371
20
290.8697
10
635.5371
20
302.8697
10
623.5371
20
302.8697
0
LWPOLYLINE
5
1EF
100
AcDbEntity
8
symbols
6
ByLayer
62
256
370
-1
100
AcDbPolyline
90
4
70
1
10
647.5371
20
290.8697
10
659.5371
20
290.8697
10
659.5371
20
302.8697
10
647.5371
20
302.8697
0
LWPOLYLINE
5
1F0
100
AcDbEntity
8
symbols
6
ByLayer
62
256
370
-1
100
AcDbPolyline
90
4
70
1
10
671.5371
20
290.8697
10
683.5371
20
290.8697
10
683.5371
20
302.8697
10
671.5371
20
302.8697
0
LINE
5
1F1
100
AcDbEntity
8
symbols
6
ByLayer
62
256
370
-1
100
AcDbLine
10
623.5371
20
290.8697
11
635.5371
21
302.8697
0
LINE
5
1F2
100
AcDbEntity
8
symbols
6
ByLayer
62
256
370
-1
100
AcDbLine
10
647.5371
20
290.8697
11
659.5371
21
302.8697
0
LINE
5
1F3
100
AcDbEntity
8
symbols
6
ByLayer
62
256
370
-1
100
AcDbLine
10
671.5371
20
290.8697
11
683.5371
21
302.8697
0
LWPOLYLINE
5
1F4
100
AcDbEntity
8
symbols
6
ByLayer
62
256
370
-1
100
AcDbPolyline
90
44
70
1
10
632.8359
20
399.72205
10
632.51148961
20
399.69587338
10
632.20374531
20
399.62008867
10
631.91678485
20
399.49881364
10
631.65472598
20
399.33616602
10
631.42168644
20
399.13626356
10
631.22178398
20
398.90322402
10
631.05913636
20
398.64116515
10
630.93786133
20
398.35420469
10
630.86207662
20
398.04646039
10
630.8359
20
397.72205
10
630.8359
20
321.43175
10
630.86207662
20
321.10733961
10
630.93786133
20
320.79959531
10
631.05913636
20
320.51263485
10
631.22178398
20
320.25057598
10
631.42168644
20
320.01753644
10
631.65472598
20
319.81763398
10
631.91678485
20
319.65498636
10
632.20374531
20
319.53371133
10
632.51148961
20
319.45792662
10
632.8359
20
319.43175
10
679.8815
20
319.43175
10
680.20591039
20
319.45792662
10
680.51365469
20
319.53371133
10
680.80061515
20
319.65498636
10
681.06267402
20
319.81763398
10
681.29571356
20
320.01753644
10
681.49561602
20
320.25057598
10
681.65826364
20
320.51263485
10
681.77953867
20
320.79959531
10
681.85532338
20
321.10733961
10
681.8815
20
321.43175
10
681.8815
20
397.72205
10
681.85532338
20
398.04646039
10
681.77953867
20
398.35420469
10
681.65826364
20
398.64116515
10
681.49561602
20
398.90322402
10
681.29571356
20
399.13626356
10
681.06267402
20
399.33616602
10
680.80061515
20
399.49881364
10
680.51365469
20
399.62008867
10
680.20591039
20
399.69587338
10
679.8815
20
399.72205
0
LWPOLYLINE
5
1F5
100
AcDbEntity
8
symbols
6
ByLayer
62
256
370
-1
100
AcDbPolyline
90
44
70
1
10
636.8359
20
395.72205
10
636.51148961
20
395.69587338
10
636.20374531
20
395.62008867
10
635.91678485
20
395.49881364
10
635.65472598
20
395.33616602
10
635.42168644
20
395.13626356
10
635.22178398
20
394.90322402
10
635.05913636
20
394.64116515
10
634.93786133
20
394.35420469
10
634.86207662
20
394.04646039
10
634.8359
20
393.72205
10
634.8359
20
365.5769
10
634.86207662
20
365.25248961
10
634.93786133
20
364.94474531
10
635.05913636
20
364.65778485
10
635.22178398
20
364.39572598
10
635.42168644
20
364.16268644
10
635.65472598
20
363.96278398
10
635.91678485
20
363.80013636
10
636.20374531
20
363.67886133
10
636.51148961
20
363.60307662
10
636.8359
20
363.5769
10
675.8815
20
363.5769
10
676.20591039
20
363.60307662
10
676.51365469
20
363.67886133
10
676.80061515
20
363.80013636
10
677.06267402
20
363.96278398
10
677.29571356
20
364.16268644
10
677.49561602
20
364.39572598
10
677.65826364
20
364.65778485
10
677.77953867
20
364.94474531
10
677.85532338
20
365.25248961
10
677.8815
20
365.5769
10
677.8815
20
393.72205
10
677.85532338
20
394.04646039
10
677.77953867
20
394.35420469
10
677.65826364
20
394.64116515
10
677.49561602
20
394.90322402
10
677.29571356
20
395.13626356
10
677.06267402
20
395.33616602
10
676.80061515
20
395.49881364
10
676.51365469
20
395.62008867
10
676.20591039
20
395.69587338
10
675.8815
20
395.72205
0
CIRCLE
5
1F6
100
AcDbEntity
8
symbols
6
ByLayer
62
256
370
-1
100
AcDbCircle
10
656.35869867
20
368.57690537
40
3
0
LWPOLYLINE
5
1F7
100
AcDbEntity
8
symbols
6
ByLayer
62
256
370
-1
100
AcDbPolyline
90
4
70
1
10
678.6815
20
360.3769
10
677.0815
20
358.7769
10
662.0815
20
373.7769
10
663.6815
20
375.3769
0
LINE
5
1F8
100
AcDbEntity
8
symbols
6
ByLayer
62
256
370
-1
100
AcDbLine
10
674.58927143
20
355.5769
11
674.58927143
21
323.43175
0
LINE
5
1F9
100
AcDbEntity
8
symbols
6
ByLayer
62
256
370
-1
100
AcDbLine
10
667.29704286
20
359.5769
11
667.29704286
21
323.43175
0
LINE
5
1FA
100
AcDbEntity
8
symbols
6
ByLayer
62
256
370
-1
100
AcDbLine
10
660.00481429
20
359.5769
11
660.00481429
21
323.43175
0
LINE
5
1FB
100
AcDbEntity
8
symbols
6
ByLayer
62
256
370
-1
100
AcDbLine
10
652.71258571
20
359.5769
11
652.71258571
21
323.43175
0
LINE
5
1FC
100
AcDbEntity
8
symbols
6
ByLayer
62
256
370
-1
100
AcDbLine
10
645.42035714
20
359.5769
11
645.42035714
21
323.43175
0
LINE
5
1FD
100
AcDbEntity
8
symbols
6
ByLayer
62
256
370
-1
100
AcDbLine
10
638.12812857
20
359.5769
11
638.12812857
21
323.43175
0
LWPOLYLINE
5
1FE
100
AcDbEntity
8
symbols
6
ByLayer
62
256
370
-1
100
AcDbPolyline
90
4
70
1
10
623.8596
20
405.0649
10
623.8596
20
315.0649
10
688.8596
20
315.0649
10
688.8596
20
405.0649
0
LWPOLYLINE
5
1FF
100
AcDbEntity
8
symbols
6
ByLayer
62
256
370
-1
100
AcDbPolyline
90
2
70
0
10
625.8596
20
315.0649
10
625.8596
20
405.0649
0
LWPOLYLINE
5
200
100
AcDbEntity
8
symbols
6
ByLayer
62
256
370
-1
100
AcDbPolyline
90
2
70
0
10
625.8596
20
360.0649
10
623.8596
20
360.0649
0
LWPOLYLINE
5
201
100
AcDbEntity
8
symbols
6
ByLayer
62
256
370
-1
100
AcDbPolyline
90
3
70
0
10
623.8596
20
358.0649
10
621.8596
20
358.0649
10
621.8596
20
355.0649
0
LWPOLYLINE
5
202
100
AcDbEntity
8
symbols
6
ByLayer
62
256
370
-1
100
AcDbPolyline
90
3
70
0
10
623.8596
20
362.0649
10
621.8596
20
362.0649
10
621.8596
20
365.0649
0
LWPOLYLINE
5
203
100
AcDbEntity
8
symbols
6
ByLayer
62
256
370
-1
100
AcDbPolyline
90
4
70
1
10
623.8597
20
615.1307
10
623.8597
20
540.0121
10
688.8597
20
540.0121
10
688.8597
20
615.1307
0
LWPOLYLINE
5
204
100
AcDbEntity
8
symbols
6
ByLayer
62
256
370
-1
100
AcDbPolyline
90
2
70
0
10
625.8597
20
540.0121
10
625.8597
20
615.1307
0
LWPOLYLINE
5
205
100
AcDbEntity
8
symbols
6
ByLayer
62
256
370
-1
100
AcDbPolyline
90
2
70
0
10
625.8597
20
577.5714
10
623.8597
20
577.5714
0
LWPOLYLINE
5
206
100
AcDbEntity
8
symbols
6
ByLayer
62
256
370
-1
100
AcDbPolyline
90
3
70
0
10
623.8597
20
575.5714
10
621.8597
20
575.5714
10
621.8597
20
572.5714
0
LWPOLYLINE
5
207
100
AcDbEntity
8
symbols
6
ByLayer
62
256
370
-1
100
AcDbPolyline
90
3
70
0
10
623.8597
20
579.5714
10
621.8597
20
579.5714
10
621.8597
20
582.5714
0
LWPOLYLINE
5
208
100
AcDbEntity
8
symbols
6
ByLayer
62
256
370
-1
100
AcDbPolyline
90
4
70
1
10
623.8599
20
479.60915
10
623.8599
20
405.06485
10
688.8599
20
405.06485
10
688.8599
20
479.60915
0
LWPOLYLINE
5
209
100
AcDbEntity
8
symbols
6
ByLayer
62
256
370
-1
100
AcDbPolyline
90
2
70
0
10
625.8599
20
405.06485
10
625.8599
20
479.60915
0
LWPOLYLINE
5
20A
100
AcDbEntity
8
symbols
6
ByLayer
62
256
370
-1
100
AcDbPolyline
90
2
70
0
10
625.8599
20
442.337
10
623.8599
20
442.337
0
LWPOLYLINE
5
20B
100
AcDbEntity
8
symbols
6
ByLayer
62
256
370
-1
100
AcDbPolyline
90
3
70
0
10
623.8599
20
440.337
10
621.8599
20
440.337
10
621.8599
20
437.337
0
LWPOLYLINE
5
20C
100
AcDbEntity
8
symbols
6
ByLayer
62
256
370
-1
100
AcDbPolyline
90
3
70
0
10
623.8599
20
444.337
10
621.8599
20
444.337
10
621.8599
20
447.337
0
LWPOLYLINE
5
20D
100
AcDbEntity
8
symbols
6
ByLayer
62
256
370
-1
100
AcDbPolyline
90
4
70
1
10
688.55395
20
479.692
10
688.55395
20
539.692
10
623.85985
20
539.692
10
623.85985
20
479.692
0
CIRCLE
5
20E
100
AcDbEntity
8
symbols
6
ByLayer
62
256
370
-1
100
AcDbCircle
10
640.03337366
20
494.6919986
40
9
0
CIRCLE
5
20F
100
AcDbEntity
8
symbols
6
ByLayer
62
256
370
-1
100
AcDbCircle
10
640.03337366
20
524.69200051
40
6
0
CIRCLE
5
210
100
AcDbEntity
8
symbols
6
ByLayer
62
256
370
-1
100
AcDbCircle
10
672.38041956
20
494.6919986
40
6
0
CIRCLE
5
211
100
AcDbEntity
8
symbols
6
ByLayer
62
256
370
-1
100
AcDbCircle
10
672.38041956
20
524.69200051
40
9
0
LWPOLYLINE
5
212
100
AcDbEntity
8
symbols
6
ByLayer
62
256
370
-1
100
AcDbPolyline
90
24
70
1
10
624.8598
20
539.692
10
624.69759481
20
539.67891169
10
624.54372266
20
539.64101934
10
624.40024243
20
539.58038182
10
624.26921299
20
539.49905801
10
624.15269322
20
539.39910678
10
624.05274199
20
539.28258701
10
623.97141818
20
539.15155757
10
623.91078066
20
539.00807734
10
623.87288831
20
538.85420519
10
623.8598
20
538.692
10
623.8598
20
480.692
10
623.87288831
20
480.52979481
10
623.91078066
20
480.37592266
10
623.97141818
20
480.23244243
10
624.05274199
20
480.10141299
10
624.15269322
20
479.98489322
10
624.26921299
20
479.88494199
10
624.40024243
20
479.80361818
10
624.54372266
20
479.74298066
10
624.69759481
20
479.70508831
10
624.8598
20
479.692
10
688.8598
20
479.692
10
688.8598
20
539.692
0
LWPOLYLINE
5
213
100
AcDbEntity
8
symbols
6
ByLayer
62
256
370
-1
100
AcDbPolyline
90
2
70
0
10
625.8598
20
539.692
10
625.8598
20
479.692
0
LWPOLYLINE
5
214
100
AcDbEntity
8
symbols
6
ByLayer
62
256
370
-1
100
AcDbPolyline
90
4
70
0
10
623.8598
20
534.692
10
619.8598
20
534.692
10
619.8598
20
484.692
10
623.8598
20
484.692
0
LWPOLYLINE
5
215
100
AcDbEntity
8
symbols
6
ByLayer
62
256
370
-1
100
AcDbPolyline
90
4
70
1
10
653.8592
20
479.60905
10
653.8592
20
405.06475
10
688.8592
20
405.06475
10
688.8592
20
479.60905
0
LWPOLYLINE
5
216
100
AcDbEntity
8
symbols
6
ByLayer
62
256
370
-1
100
AcDbPolyline
90
2
70
0
10
655.8592
20
405.06475
10
655.8592
20
479.60905
0
LWPOLYLINE
5
217
100
AcDbEntity
8
symbols
6
ByLayer
62
256
370
-1
100
AcDbPolyline
90
2
70
0
10
655.8592
20
442.3369
10
653.8592
20
442.3369
0
LWPOLYLINE
5
218
100
AcDbEntity
8
symbols
6
ByLayer
62
256
370
-1
100
AcDbPolyline
90
3
70
0
10
653.8592
20
440.3369
10
651.8592
20
440.3369
10
651.8592
20
437.3369
0
LWPOLYLINE
5
219
100
AcDbEntity
8
symbols
6
ByLayer
62
256
370
-1
100
AcDbPolyline
90
3
70
0
10
653.8592
20
444.3369
10
651.8592
20
444.3369
10
651.8592
20
447.3369
0
LWPOLYLINE
5
21A
100
AcDbEntity
8
symbols
6
ByLayer
62
256
370
-1
100
AcDbPolyline
90
4
70
1
10
653.8589
20
404.8842
10
653.8589
20
315.0648
10
688.8589
20
315.0648
10
688.8589
20
404.8842
0
LWPOLYLINE
5
21B
100
AcDbEntity
8
symbols
6
ByLayer
62
256
370
-1
100
AcDbPolyline
90
2
70
0
10
655.8589
20
315.0648
10
655.8589
20
404.8842
0
LWPOLYLINE
5
21C
100
AcDbEntity
8
symbols
6
ByLayer
62
256
370
-1
100
AcDbPolyline
90
2
70
0
10
655.8589
20
359.9745
10
653.8589
20
359.9745
0
LWPOLYLINE
5
21D
100
AcDbEntity
8
symbols
6
ByLayer
62
256
370
-1
100
AcDbPolyline
90
3
70
0
10
653.8589
20
357.9745
10
651.8589
20
357.9745
10
651.8589
20
354.9745
0
LWPOLYLINE
5
21E
100
AcDbEntity
8
symbols
6
ByLayer
62
256
370
-1
100
AcDbPolyline
90
3
70
0
10
653.8589
20
361.9745
10
651.8589
20
361.9745
10
651.8589
20
364.9745
0
LWPOLYLINE
5
21F
100
AcDbEntity
8
symbols
6
ByLayer
62
256
370
-1
100
AcDbPolyline
90
2
70
0
10
1042.81255
20
532.7724
10
1042.81255
20
342.7724
0
LWPOLYLINE
5
220
100
AcDbEntity
8
symbols
6
ByLayer
62
256
370
-1
100
AcDbPolyline
90
2
70
0
10
931.66345
20
532.7724
10
931.66345
20
342.7724
0
LWPOLYLINE
5
221
100
AcDbEntity
8
symbols
6
ByLayer
62
256
370
-1
100
AcDbPolyline
90
2
70
0
10
1047.81255
20
532.7724
10
926.66345
20
532.7724
0
LWPOLYLINE
5
222
100
AcDbEntity
8
symbols
6
ByLayer
62
256
370
-1
100
AcDbPolyline
90
2
70
0
10
1047.81255
20
342.7724
10
926.66345
20
342.7724
0
LWPOLYLINE
5
223
100
AcDbEntity
8
symbols
6
ByLayer
62
256
370
-1
100
AcDbPolyline
90
4
70
1
10
1047.81255
20
537.7724
10
926.66345
20
537.7724
10
926.66345
20
337.7724
10
1047.81255
20
337.7724
0
LWPOLYLINE
5
224
100
AcDbEntity
8
symbols
6
ByLayer
62
256
370
-1
100
AcDbPolyline
90
44
70
1
10
1037.81255
20
374.7724
10
1037.77328506
20
375.25901558
10
1037.65960801
20
375.72063203
10
1037.47769545
20
376.15107272
10
1037.23372402
20
376.54416104
10
1036.93387034
20
376.89372034
10
1036.58431104
20
377.19357402
10
1036.19122272
20
377.43754545
10
1035.76078203
20
377.61945801
10
1035.29916558
20
377.73313506
10
1034.81255
20
377.7724
10
992.738
20
377.7724
10
992.25138442
20
377.73313506
10
991.78976797
20
377.61945801
10
991.35932728
20
377.43754545
10
990.96623896
20
377.19357402
10
990.61667966
20
376.89372034
10
990.31682598
20
376.54416104
10
990.07285455
20
376.15107272
10
989.89094199
20
375.72063203
10
989.77726494
20
375.25901558
10
989.738
20
374.7724
10
989.738
20
350.7724
10
989.77726494
20
350.28578442
10
989.89094199
20
349.82416797
10
990.07285455
20
349.39372728
10
990.31682598
20
349.00063896
10
990.61667966
20
348.65107966
10
990.96623896
20
348.35122598
10
991.35932728
20
348.10725455
10
991.78976797
20
347.92534199
10
992.25138442
20
347.81166494
10
992.738
20
347.7724
10
1034.81255
20
347.7724
10
1035.29916558
20
347.81166494
10
1035.76078203
20
347.92534199
10
1036.19122272
20
348.10725455
10
1036.58431104
20
348.35122598
10
1036.93387034
20
348.65107966
10
1037.23372402
20
349.00063896
10
1037.47769545
20
349.39372728
10
1037.65960801
20
349.82416797
10
1037.77328506
20
350.28578442
10
1037.81255
20
350.7724
0
LWPOLYLINE
5
225
100
AcDbEntity
8
symbols
6
ByLayer
62
256
370
-1
100
AcDbPolyline
90
44
70
1
10
984.738
20
374.7724
10
984.69873506
20
375.25901558
10
984.58505801
20
375.72063203
10
984.40314545
20
376.15107272
10
984.15917402
20
376.54416104
10
983.85932034
20
376.89372034
10
983.50976104
20
377.19357402
10
983.11667272
20
377.43754545
10
982.68623203
20
377.61945801
10
982.22461558
20
377.73313506
10
981.738
20
377.7724
10
939.66345
20
377.7724
10
939.17683442
20
377.73313506
10
938.71521797
20
377.61945801
10
938.28477728
20
377.43754545
10
937.89168896
20
377.19357402
10
937.54212966
20
376.89372034
10
937.24227598
20
376.54416104
10
936.99830455
20
376.15107272
10
936.81639199
20
375.72063203
10
936.70271494
20
375.25901558
10
936.66345
20
374.7724
10
936.66345
20
350.7724
10
936.70271494
20
350.28578442
10
936.81639199
20
349.82416797
10
936.99830455
20
349.39372728
10
937.24227598
20
349.00063896
10
937.54212966
20
348.65107966
10
937.89168896
20
348.35122598
10
938.28477728
20
348.10725455
10
938.71521797
20
347.92534199
10
939.17683442
20
347.81166494
10
939.66345
20
347.7724
10
981.738
20
347.7724
10
982.22461558
20
347.81166494
10
982.68623203
20
347.92534199
10
983.11667272
20
348.10725455
10
983.50976104
20
348.35122598
10
983.85932034
20
348.65107966
10
984.15917402
20
349.00063896
10
984.40314545
20
349.39372728
10
984.58505801
20
349.82416797
10
984.69873506
20
350.28578442
10
984.738
20
350.7724
0
CIRCLE
5
226
100
AcDbEntity
8
symbols
6
ByLayer
62
256
370
-1
100
AcDbCircle
10
722.447604
20
594.42659867
40
17.5
0
CIRCLE
5
227
100
AcDbEntity
8
symbols
6
ByLayer
62
256
370
-1
100
AcDbCircle
10
722.447604
20
594.42659867
40
17.5
0
CIRCLE
5
228
100
AcDbEntity
8
symbols
6
ByLayer
62
256
370
-1
100
AcDbCircle
10
722.447604
20
594.42659867
40
2
0
LWPOLYLINE
5
229
100
AcDbEntity
8
symbols
6
ByLayer
62
256
370
-1
100
AcDbPolyline
90
4
70
1
10
732.08104347
20
537.33451314
10
839.96407383
20
556.35720216
10
829.60255653
20
615.12028686
10
721.71952617
20
596.09759784
0
LWPOLYLINE
5
22A
100
AcDbEntity
8
symbols
6
ByLayer
62
256
370
-1
100
AcDbPolyline
90
24
70
1
10
765.20200859
20
534.14121716
10
765.05531132
20
533.3408887
10
765.03919211
20
532.54870697
10
765.14637175
20
531.77727995
10
765.36957103
20
531.03921561
10
765.7015107
20
530.34712193
10
766.13491157
20
529.7136069
10
766.6624944
20
529.15127849
10
767.27697998
20
528.67274468
10
767.97108909
20
528.29061346
10
768.7375425
20
528.0174928
10
791.91976233
20
521.80583572
10
792.72009078
20
521.65913844
10
793.51227251
20
521.64301924
10
794.28369954
20
521.75019888
10
795.02176388
20
521.97339815
10
795.71385755
20
522.30533783
10
796.34737259
20
522.7387387
10
796.909701
20
523.26632153
10
797.3882348
20
523.88080711
10
797.77036603
20
524.57491621
10
798.04348669
20
525.34136962
10
805.29041995
20
552.38729276
10
772.44894186
20
561.18714029
0
LWPOLYLINE
5
22B
100
AcDbEntity
8
symbols
6
ByLayer
62
256
370
-1
100
AcDbPolyline
90
44
70
1
10
758.56064615
20
528.6738316
10
758.41394887
20
527.87350314
10
758.39782966
20
527.08132142
10
758.50500931
20
526.30989439
10
758.72820858
20
525.57183005
10
759.06014826
20
524.87973637
10
759.49354912
20
524.24622134
10
760.02113196
20
523.68389293
10
760.63561754
20
523.20535912
10
761.32972664
20
522.8232279
10
762.09618005
20
522.55010724
10
794.93765814
20
513.75025971
10
795.7379866
20
513.60356243
10
796.53016833
20
513.58744323
10
797.30159535
20
513.69462287
10
798.03965969
20
513.91782214
10
798.73175337
20
514.24976182
10
799.3652684
20
514.68316269
10
799.92759681
20
515.21074552
10
800.40613062
20
515.8252311
10
800.78826184
20
516.5193402
10
801.0613825
20
517.28579361
10
801.0613825
20
517.28579361
10
801.09072196
20
517.4458593
10
801.0939458
20
517.60429565
10
801.07250987
20
517.75858105
10
801.02787002
20
517.90619392
10
800.96148208
20
518.04461266
10
800.87480191
20
518.17131567
10
800.76928534
20
518.28378135
10
800.64638822
20
518.37948811
10
800.5075664
20
518.45591435
10
800.35427572
20
518.51053848
10
759.78539102
20
529.38093838
10
759.62532533
20
529.41027783
10
759.46688898
20
529.41350168
10
759.31260358
20
529.39206575
10
759.16499071
20
529.34742589
10
759.02657197
20
529.28103796
10
758.89986896
20
529.19435778
10
758.78740328
20
529.08884122
10
758.69169652
20
528.9659441
10
758.61527028
20
528.82712228
10
758.56064615
20
528.6738316
0
LWPOLYLINE
5
22C
100
AcDbEntity
8
symbols
6
ByLayer
62
256
370
-1
100
AcDbPolyline
90
4
70
0
10
827.367
20
580.2819
10
824.367
20
577.2819
10
825.867
20
575.7819
10
828.867
20
578.7819
0
LWPOLYLINE
5
22D
100
AcDbEntity
8
symbols
6
ByLayer
62
256
370
-1
100
AcDbPolyline
90
4
70
0
10
853.867
20
580.2819
10
856.867
20
577.2819
10
855.367
20
575.7819
10
852.367
20
578.7819
0
LWPOLYLINE
5
22E
100
AcDbEntity
8
symbols
6
ByLayer
62
256
370
-1
100
AcDbPolyline
90
4
70
0
10
853.867
20
603.7819
10
856.867
20
606.7819
10
855.367
20
608.2819
10
852.367
20
605.2819
0
CIRCLE
5
22F
100
AcDbEntity
8
symbols
6
ByLayer
62
256
370
-1
100
AcDbCircle
10
840.61700708
20
592.03189957
40
17.70000076
0
CIRCLE
5
230
100
AcDbEntity
8
symbols
6
ByLayer
62
256
370
-1
100
AcDbCircle
10
840.61700708
20
592.03189957
40
17.70000076
0
LWPOLYLINE
5
231
100
AcDbEntity
8
symbols
6
ByLayer
62
256
370
-1
100
AcDbPolyline
90
4
70
0
10
827.367
20
603.7819
10
824.367
20
606.7819
10
825.867
20
608.2819
10
828.867
20
605.2819
0
LWPOLYLINE
5
232
100
AcDbEntity
8
symbols
6
ByLayer
62
256
370
-1
100
AcDbPolyline
90
4
70
0
10
991.31973119
20
612.19324726
10
987.84436339
20
609.75976853
10
989.06110276
20
608.02208463
10
992.53647055
20
610.45556336
0
LWPOLYLINE
5
233
100
AcDbEntity
8
symbols
6
ByLayer
62
256
370
-1
100
AcDbPolyline
90
4
70
0
10
1017.41713664
20
607.59157055
10
1019.85061537
20
604.11620276
10
1018.11293147
20
602.89946339
10
1015.67945274
20
606.37483119
0
LWPOLYLINE
5
234
100
AcDbEntity
8
symbols
6
ByLayer
62
256
370
-1
100
AcDbPolyline
90
4
70
0
10
1021.49786881
20
630.73455274
10
1024.97323661
20
633.16803147
10
1023.75649724
20
634.90571537
10
1020.28112945
20
632.47223664
0
CIRCLE
5
235
100
AcDbEntity
8
symbols
6
ByLayer
62
256
370
-1
100
AcDbCircle
10
1006.40878564
20
621.46389878
40
17.70000076
0
CIRCLE
5
236
100
AcDbEntity
8
symbols
6
ByLayer
62
256
370
-1
100
AcDbCircle
10
1006.40878564
20
621.46389878
40
17.70000076
0
LWPOLYLINE
5
237
100
AcDbEntity
8
symbols
6
ByLayer
62
256
370
-1
100
AcDbPolyline
90
4
70
0
10
995.40046336
20
635.33622945
10
992.96698463
20
638.81159724
10
994.70466853
20
640.02833661
10
997.13814726
20
636.55296881
0
LWPOLYLINE
5
238
100
AcDbEntity
8
symbols
6
ByLayer
62
256
370
-1
100
AcDbPolyline
90
44
70
1
10
867.2283
20
129.4026
10
867.26756494
20
128.91598442
10
867.38124199
20
128.45436797
10
867.56315455
20
128.02392728
10
867.80712598
20
127.63083896
10
868.10697966
20
127.28127966
10
868.45653896
20
126.98142598
10
868.84962728
20
126.73745455
10
869.28006797
20
126.55554199
10
869.74168442
20
126.44186494
10
870.2283
20
126.4026
10
900.2283
20
126.4026
10
900.71491558
20
126.44186494
10
901.17653203
20
126.55554199
10
901.60697272
20
126.73745455
10
902.00006104
20
126.98142598
10
902.34962034
20
127.28127966
10
902.64947402
20
127.63083896
10
902.89344545
20
128.02392728
10
903.07535801
20
128.45436797
10
903.18903506
20
128.91598442
10
903.2283
20
129.4026
10
903.2283
20
138.4026
10
903.18903506
20
138.88921558
10
903.07535801
20
139.35083203
10
902.89344545
20
139.78127272
10
902.64947402
20
140.17436104
10
902.34962034
20
140.52392034
10
902.00006104
20
140.82377402
10
901.60697272
20
141.06774545
10
901.17653203
20
141.24965801
10
900.71491558
20
141.36333506
10
900.2283
20
141.4026
10
870.2283
20
141.4026
10
869.74168442
20
141.36333506
10
869.28006797
20
141.24965801
10
868.84962728
20
141.06774545
10
868.45653896
20
140.82377402
10
868.10697966
20
140.52392034
10
867.80712598
20
140.17436104
10
867.56315455
20
139.78127272
10
867.38124199
20
139.35083203
10
867.26756494
20
138.88921558
10
867.2283
20
138.4026
0
CIRCLE
5
239
100
AcDbEntity
8
symbols
6
ByLayer
62
256
370
-1
100
AcDbCircle
10
885.22830469
20
133.90258896
40
2
0
LWPOLYLINE
5
23A
100
AcDbEntity
8
symbols
6
ByLayer
62
256
370
-1
100
AcDbPolyline
90
21
70
0
10
872.2283
20
141.4026
10
869.8113
20
147.56485
10
868.4923
20
153.5306
10
868.1693
20
159.19335
10
868.7403
20
164.4466
10
870.1033
20
169.18385
10
872.1563
20
173.2986
10
874.7973
20
176.68435
10
877.9243
20
179.2346
10
881.4353
20
180.84285
10
885.2283
20
181.4026
10
889.0213
20
180.84285
10
892.5323
20
179.2346
10
895.6593
20
176.68435
10
898.3003
20
173.2986
10
900.3533
20
169.18385
10
901.7163
20
164.4466
10
902.2873
20
159.19335
10
901.9643
20
153.5306
10
900.6453
20
147.56485
10
898.2283
20
141.4026
0
LWPOLYLINE
5
23B
100
AcDbEntity
8
symbols
6
ByLayer
62
256
370
-1
100
AcDbPolyline
90
24
70
1
10
949.7353
20
187.2866
10
945.98234918
20
187.07825802
10
942.3047084
20
186.46735696
10
938.77768773
20
185.47508414
10
935.4765972
20
184.12262688
10
932.47674688
20
182.4311725
10
929.8534468
20
180.42190832
10
927.68200703
20
178.11602166
10
926.0377376
20
175.53469984
10
924.99594858
20
172.69913018
10
924.63195
20
169.6305
10
924.63195
20
151.9744
10
974.83865
20
151.9744
10
974.83865
20
169.6305
10
974.47465143
20
172.69913018
10
973.4328624
20
175.53469984
10
971.78859298
20
178.11602166
10
969.6171532
20
180.42190832
10
966.99385313
20
182.4311725
10
963.9940028
20
184.12262688
10
960.69291227
20
185.47508414
10
957.1658916
20
186.46735696
10
953.48825082
20
187.07825802
10
949.7353
20
187.2866
0
LWPOLYLINE
5
23C
100
AcDbEntity
8
symbols
6
ByLayer
62
256
370
-1
100
AcDbPolyline
90
4
70
1
10
951.2353
20
171.09928
10
948.2353
20
171.09928
10
948.2353
20
157.9744
10
951.2353
20
157.9744
0
CIRCLE
5
23D
100
AcDbEntity
8
symbols
6
ByLayer
62
256
370
-1
100
AcDbCircle
10
959.73529321
20
160.03683579
40
2.5
0
CIRCLE
5
23E
100
AcDbEntity
8
symbols
6
ByLayer
62
256
370
-1
100
AcDbCircle
10
939.73529321
20
160.03683579
40
2.5
0
LWPOLYLINE
5
23F
100
AcDbEntity
8
symbols
6
ByLayer
62
256
370
-1
100
AcDbPolyline
90
21
70
0
10
949.7353
20
183.7866
10
946.73236058
20
183.63211777
10
943.78867704
20
183.19010816
10
940.96474546
20
182.49272679
10
938.32106192
20
181.57212928
10
935.9181225
20
180.46047125
10
933.81642328
20
179.18990832
10
932.07646034
20
177.79259611
10
930.75872976
20
176.30069024
10
929.92372762
20
174.74634633
10
929.63195
20
173.16172
10
929.92222762
20
171.19836168
10
930.74672976
20
169.53162584
10
932.03596034
20
168.14032516
10
933.72042328
20
167.00327232
10
935.7306225
20
166.09928
10
937.99706192
20
165.40716088
10
940.45024546
20
164.90572764
10
943.02067704
20
164.57379296
10
945.63886058
20
164.39016952
10
948.2353
20
164.33367
0
LWPOLYLINE
5
240
100
AcDbEntity
8
symbols
6
ByLayer
62
256
370
-1
100
AcDbPolyline
90
21
70
0
10
949.7353
20
183.7866
10
952.73823942
20
183.63211777
10
955.68192296
20
183.19010816
10
958.50585454
20
182.49272679
10
961.14953808
20
181.57212928
10
963.5524775
20
180.46047125
10
965.65417672
20
179.18990832
10
967.39413966
20
177.79259611
10
968.71187024
20
176.30069024
10
969.54687238
20
174.74634633
10
969.83865
20
173.16172
10
969.54837238
20
171.19836168
10
968.72387024
20
169.53162584
10
967.43463966
20
168.14032516
10
965.75017672
20
167.00327232
10
963.7399775
20
166.09928
10
961.47353808
20
165.40716088
10
959.02035454
20
164.90572764
10
956.44992296
20
164.57379296
10
953.83173942
20
164.39016952
10
951.2353
20
164.33367
0
LWPOLYLINE
5
241
100
AcDbEntity
8
symbols
6
ByLayer
62
256
370
-1
100
AcDbPolyline
90
4
70
1
10
988.3188
20
130.353
10
1000.3188
20
130.353
10
1000.3188
20
142.353
10
988.3188
20
142.353
0
LWPOLYLINE
5
242
100
AcDbEntity
8
symbols
6
ByLayer
62
256
370
-1
100
AcDbPolyline
90
4
70
1
10
1012.3188
20
130.353
10
1024.3188
20
130.353
10
1024.3188
20
142.353
10
1012.3188
20
142.353
0
LINE
5
243
100
AcDbEntity
8
symbols
6
ByLayer
62
256
370
-1
100
AcDbLine
10
988.3188
20
130.353
11
1000.3188
21
142.353
0
LINE
5
244
100
AcDbEntity
8
symbols
6
ByLayer
62
256
370
-1
100
AcDbLine
10
1012.3188
20
130.353
11
1024.3188
21
142.353
0
LWPOLYLINE
5
245
100
AcDbEntity
8
symbols
6
ByLayer
62
256
370
-1
100
AcDbPolyline
90
4
70
1
10
1044.6943
20
207.81275
10
986.5893
20
207.81275
10
986.5893
20
154.67245
10
1044.6943
20
154.67245
0
CIRCLE
5
246
100
AcDbEntity
8
symbols
6
ByLayer
62
256
370
-1
100
AcDbCircle
10
1015.64178735
20
181.2425853
40
21.57015038
0
LWPOLYLINE
5
247
100
AcDbEntity
8
symbols
6
ByLayer
62
256
370
-1
100
AcDbPolyline
90
44
70
1
10
968.5108
20
326.2282
10
967.69977403
20
326.16275844
10
966.93041328
20
325.97329668
10
966.21301213
20
325.67010909
10
965.55786494
20
325.26349004
10
964.97526609
20
324.76373391
10
964.47550996
20
324.18113506
10
964.06889091
20
323.52598787
10
963.76570332
20
322.80858672
10
963.57624156
20
322.03922597
10
963.5108
20
321.2282
10
963.5108
20
306.2282
10
964.35238892
20
295.79827625
10
966.78889748
20
285.90417392
10
970.68793842
20
276.6782803
10
975.91712444
20
268.25298266
10
982.34406828
20
260.76066828
10
989.83638266
20
254.33372444
10
998.2616803
20
249.10453842
10
1007.48757392
20
245.20549748
10
1017.38167625
20
242.76898892
10
1027.8116
20
241.9274
10
1042.8116
20
241.9274
10
1043.62262597
20
241.99284156
10
1044.39198672
20
242.18230332
10
1045.10938787
20
242.48549091
10
1045.76453506
20
242.89210996
10
1046.34713391
20
243.39186609
10
1046.84689004
20
243.97446494
10
1047.25350909
20
244.62961213
10
1047.55669668
20
245.34701328
10
1047.74615844
20
246.11637403
10
1047.8116
20
246.9274
10
1047.8116
20
321.2282
10
1047.74615844
20
322.03922597
10
1047.55669668
20
322.80858672
10
1047.25350909
20
323.52598787
10
1046.84689004
20
324.18113506
10
1046.34713391
20
324.76373391
10
1045.76453506
20
325.26349004
10
1045.10938787
20
325.67010909
10
1044.39198672
20
325.97329668
10
1043.62262597
20
326.16275844
10
1042.8116
20
326.2282
0
LWPOLYLINE
5
248
100
AcDbEntity
8
symbols
6
ByLayer
62
256
370
-1
100
AcDbPolyline
90
44
70
1
10
968.5108
20
322.2282
10
968.34859481
20
322.21511169
10
968.19472266
20
322.17721934
10
968.05124243
20
322.11658182
10
967.92021299
20
322.03525801
10
967.80369322
20
321.93530678
10
967.70374199
20
321.81878701
10
967.62241818
20
321.68775757
10
967.56178066
20
321.54427734
10
967.52388831
20
321.39040519
10
967.5108
20
321.2282
10
967.5108
20
306.2282
10
968.30003567
20
296.44709703
10
970.58497482
20
287.1684833
10
974.24146569
20
278.5165106
10
979.14535647
20
270.61533071
10
985.17249541
20
263.58909541
10
992.19873071
20
257.56195647
10
1000.0999106
20
252.65806569
10
1008.7518833
20
249.00157482
10
1018.03049703
20
246.71663567
10
1027.8116
20
245.9274
10
1042.8116
20
245.9274
10
1042.97380519
20
245.94048831
10
1043.12767734
20
245.97838066
10
1043.27115757
20
246.03901818
10
1043.40218701
20
246.12034199
10
1043.51870678
20
246.22029322
10
1043.61865801
20
246.33681299
10
1043.69998182
20
246.46784243
10
1043.76061934
20
246.61132266
10
1043.79851169
20
246.76519481
10
1043.8116
20
246.9274
10
1043.8116
20
321.2282
10
1043.79851169
20
321.39040519
10
1043.76061934
20
321.54427734
10
1043.69998182
20
321.68775757
10
1043.61865801
20
321.81878701
10
1043.51870678
20
321.93530678
10
1043.40218701
20
322.03525801
10
1043.27115757
20
322.11658182
10
1043.12767734
20
322.17721934
10
1042.97380519
20
322.21511169
10
1042.8116
20
322.2282
0
CIRCLE
5
249
100
AcDbEntity
8
symbols
6
ByLayer
62
256
370
-1
100
AcDbCircle
10
1032.81158716
20
311.22819626
40
3
0
LWPOLYLINE
5
24A
100
AcDbEntity
8
symbols
6
ByLayer
62
256
370
-1
100
AcDbPolyline
90
4
70
1
10
980.7897
20
182.9742
10
918.1493
20
182.9742
10
918.1493
20
151.9742
10
980.7897
20
151.9742
0
LWPOLYLINE
5
24B
100
AcDbEntity
8
symbols
6
ByLayer
62
256
370
-1
100
AcDbPolyline
90
2
70
0
10
918.1493
20
180.9742
10
980.7897
20
180.9742
0
LWPOLYLINE
5
24C
100
AcDbEntity
8
symbols
6
ByLayer
62
256
370
-1
100
AcDbPolyline
90
2
70
0
10
949.4695
20
180.9742
10
949.4695
20
182.9742
0
LWPOLYLINE
5
24D
100
AcDbEntity
8
symbols
6
ByLayer
62
256
370
-1
100
AcDbPolyline
90
3
70
0
10
947.4695
20
182.9742
10
947.4695
20
184.9742
10
944.4695
20
184.9742
0
LWPOLYLINE
5
24E
100
AcDbEntity
8
symbols
6
ByLayer
62
256
370
-1
100
AcDbPolyline
90
3
70
0
10
951.4695
20
182.9742
10
951.4695
20
184.9742
10
954.4695
20
184.9742
0
LWPOLYLINE
5
24F
100
AcDbEntity
8
symbols
6
ByLayer
62
256
370
-1
100
AcDbPolyline
90
4
70
1
10
847.93155
20
158.98475
10
700.82685
20
158.98475
10
700.82685
20
103.59485
10
847.93155
20
103.59485
0
LWPOLYLINE
5
250
100
AcDbEntity
8
symbols
6
ByLayer
62
256
370
-1
100
AcDbPolyline
90
2
70
0
10
847.93155
20
156.98475
10
700.82685
20
156.98475
0
LWPOLYLINE
5
251
100
AcDbEntity
8
symbols
6
ByLayer
62
256
370
-1
100
AcDbPolyline
90
2
70
0
10
774.3792
20
156.98475
10
774.3792
20
158.98475
0
LWPOLYLINE
5
252
100
AcDbEntity
8
symbols
6
ByLayer
62
256
370
-1
100
AcDbPolyline
90
3
70
0
10
772.3792
20
158.98475
10
772.3792
20
160.98475
10
769.3792
20
160.98475
0
LWPOLYLINE
5
253
100
AcDbEntity
8
symbols
6
ByLayer
62
256
370
-1
100
AcDbPolyline
90
3
70
0
10
776.3792
20
158.98475
10
776.3792
20
160.98475
10
779.3792
20
160.98475
0
LWPOLYLINE
5
254
100
AcDbEntity
8
symbols
6
ByLayer
62
256
370
-1
100
AcDbPolyline
90
6
70
0
10
1231.89168212
20
787.29159939
10
1166.83309399
20
835.62923919
10
1264.56216838
20
667.8518144
10
1263.28976924
20
862.013132
10
1231.89168212
20
787.29159939
10
1264.56216838
20
667.8518144
0
LINE
5
255
100
AcDbEntity
8
symbols
6
ByLayer
62
256
370
-1
100
AcDbLine
10
252.8793
20
654.2603
11
158.0537
21
654.2603
0
LINE
5
256
100
AcDbEntity
8
symbols
6
ByLayer
62
256
370
-1
100
AcDbLine
10
252.8793
20
674.3148
11
158.0537
21
674.3148
0
LINE
5
257
100
AcDbEntity
8
symbols
6
ByLayer
62
256
370
-1
100
AcDbLine
10
158.0537
20
669.28755
11
252.8793
21
669.28755
0
LINE
5
258
100
AcDbEntity
8
symbols
6
ByLayer
62
256
370
-1
100
AcDbLine
10
158.0537
20
659.28755
11
252.8793
21
659.28755
0
LINE
5
259
100
AcDbEntity
8
symbols
6
ByLayer
62
256
370
-1
100
AcDbLine
10
168.0537
20
659.28755
11
168.0537
21
669.28755
0
LINE
5
25A
100
AcDbEntity
8
symbols
6
ByLayer
62
256
370
-1
100
AcDbLine
10
242.8793
20
659.28755
11
242.8793
21
669.28755
0
LINE
5
25B
100
AcDbEntity
8
symbols
6
ByLayer
62
256
370
-1
100
AcDbLine
10
168.0537
20
664.28755
11
242.8793
21
664.28755
0
LINE
5
25C
100
AcDbEntity
8
symbols
6
ByLayer
62
256
370
-1
100
AcDbLine
10
294.2058
20
654.2603
11
252.9565
21
654.2603
0
LINE
5
25D
100
AcDbEntity
8
symbols
6
ByLayer
62
256
370
-1
100
AcDbLine
10
294.2058
20
674.3148
11
252.9565
21
674.3148
0
LINE
5
25E
100
AcDbEntity
8
symbols
6
ByLayer
62
256
370
-1
100
AcDbLine
10
252.9565
20
669.28755
11
294.2058
21
669.28755
0
LINE
5
25F
100
AcDbEntity
8
symbols
6
ByLayer
62
256
370
-1
100
AcDbLine
10
252.9565
20
659.28755
11
294.2058
21
659.28755
0
LINE
5
260
100
AcDbEntity
8
symbols
6
ByLayer
62
256
370
-1
100
AcDbLine
10
262.9565
20
659.28755
11
262.9565
21
669.28755
0
LINE
5
261
100
AcDbEntity
8
symbols
6
ByLayer
62
256
370
-1
100
AcDbLine
10
284.2058
20
659.28755
11
284.2058
21
669.28755
0
LINE
5
262
100
AcDbEntity
8
symbols
6
ByLayer
62
256
370
-1
100
AcDbLine
10
262.9565
20
664.28755
11
284.2058
21
664.28755
0
LWPOLYLINE
5
263
100
AcDbEntity
8
symbols
6
ByLayer
62
256
370
-1
100
AcDbPolyline
90
2
70
0
10
376.689
20
659.28755
10
296.689
20
659.28755
0
LWPOLYLINE
5
264
100
AcDbEntity
8
symbols
6
ByLayer
62
256
370
-1
100
AcDbPolyline
90
3
70
0
10
296.689
20
669.28755
10
301.689
20
669.28755
10
301.689
20
659.28755
0
LWPOLYLINE
5
265
100
AcDbEntity
8
symbols
6
ByLayer
62
256
370
-1
100
AcDbPolyline
90
14
70
0
10
376.689
20
669.28755
10
371.689
20
669.28755
10
371.689
20
659.28755
10
371.689
20
589.28755
10
360.33463641
20
590.20373182
10
349.56358592
20
592.85619648
10
339.51996977
20
597.10082276
10
330.34790917
20
602.79348944
10
322.19152532
20
609.79007532
10
315.19493944
20
617.94645917
10
309.50227276
20
627.11851977
10
305.25764648
20
637.16213592
10
302.60518182
20
647.93318641
10
301.689
20
659.28755
0
LINE
5
266
100
AcDbEntity
8
symbols
6
ByLayer
62
256
370
-1
100
AcDbLine
10
366.689
20
659.28755
11
366.689
21
589.46634978
0
TEXT
5
267
100
AcDbEntity
8
text
6
ByLayer
62
256
370
-1
100
AcDbText
10
228.1038
20
514.5524
30
0
40
14
1
Living
50
0
41
0.9
7
standard
72
1
11
265.9038
21
514.5524
31
0
100
AcDbText
0
TEXT
5
268
100
AcDbEntity
8
text
6
ByLayer
62
256
370
-1
100
AcDbText
10
215.5038
20
496.3524
30
0
40
14
1
18,95 m2
50
0
41
0.9
7
standard
72
1
11
265.9038
21
496.3524
31
0
100
AcDbText
0
LINE
5
269
100
AcDbEntity
8
symbols
6
ByLayer
62
256
370
-1
100
AcDbLine
10
617.2627
20
615.1306
11
504.6744
21
615.1306
0
LINE
5
26A
100
AcDbEntity
8
symbols
6
ByLayer
62
256
370
-1
100
AcDbLine
10
617.2627
20
657.1306
11
504.6744
21
657.1306
0
LINE
5
26B
100
AcDbEntity
8
symbols
6
ByLayer
62
256
370
-1
100
AcDbLine
10
504.6744
20
641.1306
11
617.2627
21
641.1306
0
LINE
5
26C
100
AcDbEntity
8
symbols
6
ByLayer
62
256
370
-1
100
AcDbLine
10
504.6744
20
631.1306
11
617.2627
21
631.1306
0
LINE
5
26D
100
AcDbEntity
8
symbols
6
ByLayer
62
256
370
-1
100
AcDbLine
10
514.6744
20
631.1306
11
514.6744
21
641.1306
0
LINE
5
26E
100
AcDbEntity
8
symbols
6
ByLayer
62
256
370
-1
100
AcDbLine
10
607.2627
20
631.1306
11
607.2627
21
641.1306
0
LINE
5
26F
100
AcDbEntity
8
symbols
6
ByLayer
62
256
370
-1
100
AcDbLine
10
514.6744
20
636.1306
11
607.2627
21
636.1306
0
LINE
5
270
100
AcDbEntity
8
symbols
6
ByLayer
62
256
370
-1
100
AcDbLine
10
663.9251
20
615.1306
11
617.486
21
615.1306
0
LINE
5
271
100
AcDbEntity
8
symbols
6
ByLayer
62
256
370
-1
100
AcDbLine
10
663.9251
20
657.1306
11
617.486
21
657.1306
0
LINE
5
272
100
AcDbEntity
8
symbols
6
ByLayer
62
256
370
-1
100
AcDbLine
10
617.486
20
641.1306
11
663.9251
21
641.1306
0
LINE
5
273
100
AcDbEntity
8
symbols
6
ByLayer
62
256
370
-1
100
AcDbLine
10
617.486
20
631.1306
11
663.9251
21
631.1306
0
LINE
5
274
100
AcDbEntity
8
symbols
6
ByLayer
62
256
370
-1
100
AcDbLine
10
627.486
20
631.1306
11
627.486
21
641.1306
0
LINE
5
275
100
AcDbEntity
8
symbols
6
ByLayer
62
256
370
-1
100
AcDbLine
10
653.9251
20
631.1306
11
653.9251
21
641.1306
0
LINE
5
276
100
AcDbEntity
8
symbols
6
ByLayer
62
256
370
-1
100
AcDbLine
10
627.486
20
636.1306
11
653.9251
21
636.1306
0
LINE
5
277
100
AcDbEntity
8
symbols
6
ByLayer
62
256
370
-1
100
AcDbLine
10
601.7499
20
302.8747
11
521.3744
21
302.8747
0
LINE
5
278
100
AcDbEntity
8
symbols
6
ByLayer
62
256
370
-1
100
AcDbLine
10
521.3744
20
315.0647
11
601.7499
21
315.0647
0
TEXT
5
279
100
AcDbEntity
8
text
6
ByLayer
62
256
370
-1
100
AcDbText
10
485.78995
20
411.60915
30
0
40
14
1
Kitchen
50
0
41
0.9
7
standard
72
1
11
529.88995
21
411.60915
31
0
100
AcDbText
0
LINE
5
27A
100
AcDbEntity
8
symbols
6
ByLayer
62
256
370
-1
100
AcDbLine
10
822.22916885
20
634.5778015
11
764.66988033
21
625.35814026
0
LINE
5
27B
100
AcDbEntity
8
symbols
6
ByLayer
62
256
370
-1
100
AcDbLine
10
818.95554965
20
655.01534118
11
761.42023443
21
645.64601214
0
LINE
5
27C
100
AcDbEntity
8
symbols
6
ByLayer
62
256
370
-1
100
AcDbLine
10
762.25425392
20
640.43914313
11
819.81354244
21
649.65880438
0
LINE
5
27D
100
AcDbEntity
8
symbols
6
ByLayer
62
256
370
-1
100
AcDbLine
10
763.83586084
20
630.56500927
11
821.39514937
21
639.78467051
0
LINE
5
27E
100
AcDbEntity
8
symbols
6
ByLayer
62
256
370
-1
100
AcDbLine
10
773.7099947
20
632.14661619
11
772.12838778
21
642.02075006
0
LINE
5
27F
100
AcDbEntity
8
symbols
6
ByLayer
62
256
370
-1
100
AcDbLine
10
811.5210155
20
638.20306359
11
809.93940858
21
648.07719745
0
LINE
5
280
100
AcDbEntity
8
symbols
6
ByLayer
62
256
370
-1
100
AcDbLine
10
772.91919124
20
637.08368312
11
810.73021204
21
643.14013052
0
LINE
5
281
100
AcDbEntity
8
symbols
6
ByLayer
62
256
370
-1
100
AcDbLine
10
944.82582244
20
654.21493818
11
822.41638243
21
634.60778877
0
LINE
5
282
100
AcDbEntity
8
symbols
6
ByLayer
62
256
370
-1
100
AcDbLine
10
941.50114203
20
674.97125821
11
819.14268525
21
655.04581525
0
LINE
5
283
100
AcDbEntity
8
symbols
6
ByLayer
62
256
370
-1
100
AcDbLine
10
819.98873038
20
649.76386894
11
942.39817039
21
669.37101835
0
LINE
5
284
100
AcDbEntity
8
symbols
6
ByLayer
62
256
370
-1
100
AcDbLine
10
821.5703373
20
639.88973508
11
943.97977732
21
659.49688449
0
LINE
5
285
100
AcDbEntity
8
symbols
6
ByLayer
62
256
370
-1
100
AcDbLine
10
831.44447117
20
641.471342
11
829.86286424
21
651.34547586
0
LINE
5
286
100
AcDbEntity
8
symbols
6
ByLayer
62
256
370
-1
100
AcDbLine
10
934.10564345
20
657.91527756
11
932.52403653
21
667.78941142
0
LINE
5
287
100
AcDbEntity
8
symbols
6
ByLayer
62
256
370
-1
100
AcDbLine
10
830.6536677
20
646.40840893
11
933.31483999
21
662.85234449
0
LINE
5
288
100
AcDbEntity
8
symbols
6
ByLayer
62
256
370
-1
100
AcDbLine
10
996.56973983
20
662.50311202
11
945.36544386
21
654.301373
0
LINE
5
289
100
AcDbEntity
8
symbols
6
ByLayer
62
256
370
-1
100
AcDbLine
10
993.2235082
20
683.39397851
11
942.04053869
21
675.05909618
0
LINE
5
28A
100
AcDbEntity
8
symbols
6
ByLayer
62
256
370
-1
100
AcDbLine
10
942.91218781
20
669.61730152
11
994.11648378
21
677.81904055
0
LINE
5
28B
100
AcDbEntity
8
symbols
6
ByLayer
62
256
370
-1
100
AcDbLine
10
944.49379474
20
659.74316766
11
995.69809071
21
667.94490668
0
LINE
5
28C
100
AcDbEntity
8
symbols
6
ByLayer
62
256
370
-1
100
AcDbLine
10
954.3679286
20
661.32477458
11
952.78632168
21
671.19890844
0
LINE
5
28D
100
AcDbEntity
8
symbols
6
ByLayer
62
256
370
-1
100
AcDbLine
10
985.82395685
20
666.36329976
11
984.24234992
21
676.23743362
0
LINE
5
28E
100
AcDbEntity
8
symbols
6
ByLayer
62
256
370
-1
100
AcDbLine
10
953.57712514
20
666.26184151
11
985.03315338
21
671.30036669
0
LWPOLYLINE
5
28F
100
AcDbEntity
8
symbols
6
ByLayer
62
256
370
-1
100
AcDbPolyline
90
2
70
0
10
844.5938
20
313.9697
10
762.1734
20
313.9697
0
LWPOLYLINE
5
290
100
AcDbEntity
8
symbols
6
ByLayer
62
256
370
-1
100
AcDbPolyline
90
3
70
0
10
762.1734
20
303.9697
10
767.1734
20
303.9697
10
767.1734
20
313.9697
0
LWPOLYLINE
5
291
100
AcDbEntity
8
symbols
6
ByLayer
62
256
370
-1
100
AcDbPolyline
90
14
70
0
10
844.5938
20
303.9697
10
839.5938
20
303.9697
10
839.5938
20
313.9697
10
839.5938
20
386.3901
10
827.84683495
20
385.44223923
10
816.70335232
20
382.69805992
10
806.31245662
20
378.30666659
10
796.82325236
20
372.41716376
10
788.38484406
20
365.17865594
10
781.14633624
20
356.74024764
10
775.25683341
20
347.25104338
10
770.86544008
20
336.86014768
10
768.12126077
20
325.71666505
10
767.1734
20
313.9697
0
LINE
5
292
100
AcDbEntity
8
symbols
6
ByLayer
62
256
370
-1
100
AcDbLine
10
834.5938
20
313.9697
11
834.5938
21
386.21729052
0
TEXT
5
293
100
AcDbEntity
8
text
6
ByLayer
62
256
370
-1
100
AcDbText
10
755.47255
20
465.9408
30
0
40
14
1
Bedroom
50
0
41
0.9
7
standard
72
1
11
799.57255
21
465.9408
31
0
100
AcDbText
0
LWPOLYLINE
5
294
100
AcDbEntity
8
symbols
6
ByLayer
62
256
370
-1
100
AcDbPolyline
90
2
70
0
10
848.94675
20
296.3218
10
848.94675
20
212.9695
0
LWPOLYLINE
5
295
100
AcDbEntity
8
symbols
6
ByLayer
62
256
370
-1
100
AcDbPolyline
90
3
70
0
10
858.94675
20
212.9695
10
858.94675
20
217.9695
10
848.94675
20
217.9695
0
LWPOLYLINE
5
296
100
AcDbEntity
8
symbols
6
ByLayer
62
256
370
-1
100
AcDbPolyline
90
14
70
0
10
858.94675
20
296.3218
10
858.94675
20
291.3218
10
848.94675
20
291.3218
10
775.59445
20
291.3218
10
776.55450777
20
279.42367593
10
779.33399896
20
268.13679984
10
783.78190039
20
257.61219492
10
789.74718888
20
248.00088433
10
797.07884125
20
239.45389125
10
805.62583433
20
232.12223888
10
815.23714492
20
226.15695039
10
825.76174984
20
221.70904896
10
837.04862593
20
218.92955777
10
848.94675
20
217.9695
0
LINE
5
297
100
AcDbEntity
8
symbols
6
ByLayer
62
256
370
-1
100
AcDbLine
10
848.94675
20
286.3218
11
775.76505888
21
286.3218
0
TEXT
5
298
100
AcDbEntity
8
text
6
ByLayer
62
256
370
-1
100
AcDbText
10
869.1076
20
241.14185
30
0
40
14
1
Bathroom
50
0
41
0.9
7
standard
72
1
11
919.5076
21
241.14185
31
0
100
AcDbText
0
LINE
5
299
100
AcDbEntity
8
symbols
6
ByLayer
62
256
370
-1
100
AcDbLine
10
700.8183
20
259.1111
11
700.8183
21
166.8282
0
LINE
5
29A
100
AcDbEntity
8
symbols
6
ByLayer
62
256
370
-1
100
AcDbLine
10
688.86
20
166.8282
11
688.86
21
259.1111
0
LWPOLYLINE
5
29B
100
AcDbEntity
8
symbols
6
ByLayer
62
256
370
-1
100
AcDbPolyline
90
2
70
0
10
627.1724
20
77.6001
10
539.6524
20
77.6001
0
LWPOLYLINE
5
29C
100
AcDbEntity
8
symbols
6
ByLayer
62
256
370
-1
100
AcDbPolyline
90
3
70
0
10
539.6524
20
87.6001
10
544.6524
20
87.6001
10
544.6524
20
77.6001
0
LWPOLYLINE
5
29D
100
AcDbEntity
8
symbols
6
ByLayer
62
256
370
-1
100
AcDbPolyline
90
14
70
0
10
627.1724
20
87.6001
10
622.1724
20
87.6001
10
622.1724
20
77.6001
10
622.1724
20
0.0801
10
609.59825334
20
1.09470593
10
597.6700843
20
4.03212107
10
586.54749681
20
8.73274149
10
576.39009484
20
15.03696322
10
567.35748232
20
22.78518232
10
559.60926322
20
31.81779484
10
553.30504149
20
41.97519681
10
548.60442107
20
53.0977843
10
545.66700593
20
65.02595334
10
544.6524
20
77.6001
0
LINE
5
29E
100
AcDbEntity
8
symbols
6
ByLayer
62
256
370
-1
100
AcDbLine
10
617.1724
20
77.6001
11
617.1724
21
0.24151677
0
LWPOLYLINE
5
29F
100
AcDbEntity
8
symbols
6
ByLayer
62
256
370
-1
100
AcDbPolyline
90
2
70
0
10
451.986
20
169.0607
10
451.986
20
242.0422
0
LWPOLYLINE
5
2A0
100
AcDbEntity
8
symbols
6
ByLayer
62
256
370
-1
100
AcDbPolyline
90
3
70
0
10
461.986
20
242.0422
10
461.986
20
237.0422
10
451.986
20
237.0422
0
LWPOLYLINE
5
2A1
100
AcDbEntity
8
symbols
6
ByLayer
62
256
370
-1
100
AcDbPolyline
90
14
70
0
10
461.986
20
169.0607
10
461.986
20
174.0607
10
451.986
20
174.0607
10
389.0045
20
174.0607
10
389.82882151
20
184.27662644
10
392.21533869
20
193.96772524
10
396.03438055
20
203.00432539
10
401.15627607
20
211.25675589
10
407.45135426
20
218.59534574
10
414.78994411
20
224.89042393
10
423.04237461
20
230.01231945
10
432.07897476
20
233.83136131
10
441.77007356
20
236.21787849
10
451.986
20
237.0422
0
LINE
5
2A2
100
AcDbEntity
8
symbols
6
ByLayer
62
256
370
-1
100
AcDbLine
10
451.986
20
179.0607
11
389.20328469
21
179.0607
0
TEXT
5
2A3
100
AcDbEntity
8
text
6
ByLayer
62
256
370
-1
100
AcDbText
10
480.6024
20
235.191
30
0
40
14
1
Passage
50
0
41
0.9
7
standard
72
1
11
524.7024
21
235.191
31
0
100
AcDbText
0
TEXT
5
2A4
100
AcDbEntity
8
text
6
ByLayer
62
256
370
-1
100
AcDbText
10
430.2024
20
216.991
30
0
40
14
1
223 cm x 199 cm
50
0
41
0.9
7
standard
72
1
11
524.7024
21
216.991
31
0
100
AcDbText
0
TEXT
5
2A5
100
AcDbEntity
8
text
6
ByLayer
62
256
370
-1
100
AcDbText
10
231.6036
20
717.11025
30
0
40
14
1
Balcony
50
0
41
0.9
7
standard
72
1
11
275.7036
21
717.11025
31
0
100
AcDbText
0
TEXT
5
2A6
100
AcDbEntity
8
text
6
ByLayer
62
256
370
-1
100
AcDbText
10
830.21505
20
715.0569
30
0
40
14
1
3,96 m2
50
0
41
0.9
7
standard
72
1
11
874.31505
21
715.0569
31
0
100
AcDbText
0
ENDSEC
0
SECTION
2
OBJECTS
0
DICTIONARY
5
C
330
0
100
AcDbDictionary
281
1
3
ACAD_GROUP
350
D
0
DICTIONARY
5
D
330
C
100
AcDbDictionary
281
1
0
ENDSEC
0
EOF
